<?xml version="1.0" encoding="UTF-8"?>
<svg id="Layer_1" data-name="Layer 1" xmlns="http://www.w3.org/2000/svg" version="1.1" viewBox="0 0 1985 885">
  <defs>
    <style>
      .cls-1 {
        fill: #e95420;
      }

      .cls-1, .cls-2, .cls-3, .cls-4, .cls-5, .cls-6, .cls-7, .cls-8, .cls-9 {
        stroke-width: 0px;
      }

      .cls-2 {
        fill: #666;
      }

      .cls-3 {
        fill: #f3f3f3;
      }

      .cls-4 {
        fill: #888;
      }

      .cls-5 {
        fill: #000;
      }

      .cls-6 {
        fill: #d1d1d1;
      }

      .cls-7 {
        fill: #fbddd2;
      }

      .cls-8 {
        fill: #fff;
      }

      .cls-9 {
        fill: #e5e5e5;
      }
    </style>
  </defs>
  <rect class="cls-8" width="1985" height="885"/>
  <g id="Layer_3" data-name="Layer 3">
    <g>
      <rect class="cls-3" x="1280.1" y="282.6" width="489.9" height="554.2" rx="8.7" ry="8.7"/>
      <path class="cls-2" d="M1761.4,837.8h-472.6c-5.4,0-9.8-4.4-9.8-9.8V291.3c0-5.4,4.4-9.8,9.8-9.8h472.6c5.4,0,9.8,4.4,9.8,9.8v536.8c0,5.4-4.4,9.8-9.8,9.8h0ZM1288.8,283.7c-4.2,0-7.6,3.4-7.6,7.6v536.8c0,4.2,3.4,7.6,7.6,7.6h472.6c4.2,0,7.6-3.4,7.6-7.6V291.3c0-4.2-3.4-7.6-7.6-7.6h-472.6Z"/>
    </g>
    <g>
      <rect class="cls-3" x="221.9" y="282.6" width="489.9" height="554.2" rx="8.7" ry="8.7"/>
      <path class="cls-2" d="M703.1,837.8H230.5c-5.4,0-9.8-4.4-9.8-9.8V291.3c0-5.4,4.4-9.8,9.8-9.8h472.6c5.4,0,9.8,4.4,9.8,9.8v536.8c0,5.4-4.4,9.8-9.8,9.8h0ZM230.5,283.7c-4.2,0-7.6,3.4-7.6,7.6v536.8c0,4.2,3.4,7.6,7.6,7.6h472.6c4.2,0,7.6-3.4,7.6-7.6V291.3c0-4.2-3.4-7.6-7.6-7.6H230.5Z"/>
    </g>
    <rect class="cls-2" x="568.2" y="144.3" width="2.2" height="107.7"/>
    <g>
      <polyline class="cls-3" points="362.4 365.8 362.4 342 552.2 342 552.2 318.1"/>
      <polygon class="cls-1" points="363.5 365.8 361.3 365.8 361.3 340.9 551.1 340.9 551.1 318.1 553.3 318.1 553.3 343 363.5 343 363.5 365.8"/>
    </g>
    <g>
      <polyline class="cls-3" points="1627.6 365.8 1627.6 342 1437.8 342 1437.8 318.1"/>
      <polygon class="cls-7" points="1628.7 365.8 1626.5 365.8 1626.5 343 1436.7 343 1436.7 318.1 1438.9 318.1 1438.9 340.9 1628.7 340.9 1628.7 365.8"/>
    </g>
    <rect class="cls-2" x="1419.6" y="144.3" width="2.2" height="107.7"/>
    <g>
      <path class="cls-1" d="M171.2,570.2h0c-.6,0-1.1-.5-1.1-1.1s.5-1.1,1.1-1.1,1.1.5,1.1,1.1-.5,1.1-1.1,1.1Z"/>
      <path class="cls-1" d="M162.5,570.2h-.1c-.6,0-1.1-.5-1.1-1.1s.5-1.1,1.1-1.1h.1c.6,0,1.1.5,1.1,1.1s-.5,1.1-1.1,1.1ZM153.8,570.2h-.1c-.6,0-1.1-.5-1.1-1.1s.5-1.1,1.1-1.1h.1c.6,0,1.1.5,1.1,1.1s-.5,1.1-1.1,1.1ZM145,570.2h-.1c-.6,0-1.1-.5-1.1-1.1s.5-1.1,1.1-1.1h.1c.6,0,1.1.5,1.1,1.1s-.5,1.1-1.1,1.1ZM136.2,570.2h-.1c-.6,0-1.1-.5-1.1-1.1s.5-1.1,1.1-1.1h.1c.6,0,1.1.5,1.1,1.1s-.5,1.1-1.1,1.1ZM127.5,570.2h-.1c-.6,0-1.1-.5-1.1-1.1s.5-1.1,1.1-1.1h.1c.6,0,1.1.5,1.1,1.1s-.5,1.1-1.1,1.1ZM118.8,570.2h-.1c-.6,0-1.1-.5-1.1-1.1s.5-1.1,1.1-1.1h.1c.6,0,1.1.5,1.1,1.1s-.5,1.1-1.1,1.1ZM110,570.2h-.1c-.6,0-1.1-.5-1.1-1.1s.5-1.1,1.1-1.1h.1c.6,0,1.1.5,1.1,1.1s-.5,1.1-1.1,1.1ZM101.2,570.2h-.1c-.6,0-1.1-.5-1.1-1.1s.5-1.1,1.1-1.1h.1c.6,0,1.1.5,1.1,1.1s-.5,1.1-1.1,1.1ZM92.5,570.2h-.1c-.6,0-1.1-.5-1.1-1.1s.5-1.1,1.1-1.1h.1c.6,0,1.1.5,1.1,1.1s-.5,1.1-1.1,1.1ZM83.7,570.2h-.1c-.6,0-1.1-.5-1.1-1.1s.5-1.1,1.1-1.1h.1c.6,0,1.1.5,1.1,1.1s-.5,1.1-1.1,1.1ZM75,570.2h-.1c-.6,0-1.1-.5-1.1-1.1s.5-1.1,1.1-1.1h.1c.6,0,1.1.5,1.1,1.1s-.5,1.1-1.1,1.1ZM66.2,570.2h-.1c-.6,0-1.1-.5-1.1-1.1s.5-1.1,1.1-1.1h.1c.6,0,1.1.5,1.1,1.1s-.5,1.1-1.1,1.1ZM57.5,570.2h-.1c-.6,0-1.1-.5-1.1-1.1s.5-1.1,1.1-1.1h.1c.6,0,1.1.5,1.1,1.1s-.5,1.1-1.1,1.1Z"/>
      <path class="cls-1" d="M48.7,570.2h0c-.6,0-1.1-.5-1.1-1.1s.5-1.1,1.1-1.1,1.1.5,1.1,1.1-.5,1.1-1.1,1.1Z"/>
    </g>
    <g>
      <path class="cls-1" d="M1818.8,570.2c-.6,0-1.1-.5-1.1-1.1s.5-1.1,1.1-1.1h0c.6,0,1.1.5,1.1,1.1s-.5,1.1-1.1,1.1h0Z"/>
      <path class="cls-1" d="M1932.6,570.2h-.1c-.6,0-1.1-.5-1.1-1.1s.5-1.1,1.1-1.1h.1c.6,0,1.1.5,1.1,1.1s-.5,1.1-1.1,1.1ZM1923.8,570.2h-.1c-.6,0-1.1-.5-1.1-1.1s.5-1.1,1.1-1.1h.1c.6,0,1.1.5,1.1,1.1s-.5,1.1-1.1,1.1ZM1915.1,570.2h-.1c-.6,0-1.1-.5-1.1-1.1s.5-1.1,1.1-1.1h.1c.6,0,1.1.5,1.1,1.1s-.5,1.1-1.1,1.1ZM1906.3,570.2h-.1c-.6,0-1.1-.5-1.1-1.1s.5-1.1,1.1-1.1h.1c.6,0,1.1.5,1.1,1.1s-.5,1.1-1.1,1.1ZM1897.6,570.2h-.1c-.6,0-1.1-.5-1.1-1.1s.5-1.1,1.1-1.1h.1c.6,0,1.1.5,1.1,1.1s-.5,1.1-1.1,1.1ZM1888.8,570.2h-.1c-.6,0-1.1-.5-1.1-1.1s.5-1.1,1.1-1.1h.1c.6,0,1.1.5,1.1,1.1s-.5,1.1-1.1,1.1ZM1880.1,570.2h-.1c-.6,0-1.1-.5-1.1-1.1s.5-1.1,1.1-1.1h.1c.6,0,1.1.5,1.1,1.1s-.5,1.1-1.1,1.1ZM1871.3,570.2h-.1c-.6,0-1.1-.5-1.1-1.1s.5-1.1,1.1-1.1h.1c.6,0,1.1.5,1.1,1.1s-.5,1.1-1.1,1.1ZM1862.6,570.2h-.1c-.6,0-1.1-.5-1.1-1.1s.5-1.1,1.1-1.1h.1c.6,0,1.1.5,1.1,1.1s-.5,1.1-1.1,1.1ZM1853.8,570.2h-.1c-.6,0-1.1-.5-1.1-1.1s.5-1.1,1.1-1.1h.1c.6,0,1.1.5,1.1,1.1s-.5,1.1-1.1,1.1ZM1845.1,570.2h-.1c-.6,0-1.1-.5-1.1-1.1s.5-1.1,1.1-1.1h.1c.6,0,1.1.5,1.1,1.1s-.5,1.1-1.1,1.1ZM1836.3,570.2h-.1c-.6,0-1.1-.5-1.1-1.1s.5-1.1,1.1-1.1h.1c.6,0,1.1.5,1.1,1.1s-.5,1.1-1.1,1.1ZM1827.6,570.2h-.1c-.6,0-1.1-.5-1.1-1.1s.5-1.1,1.1-1.1h.1c.6,0,1.1.5,1.1,1.1s-.5,1.1-1.1,1.1Z"/>
      <path class="cls-1" d="M1941.3,570.2c-.6,0-1.1-.5-1.1-1.1s.5-1.1,1.1-1.1h0c.6,0,1.1.5,1.1,1.1s-.5,1.1-1.1,1.1h0Z"/>
    </g>
    <g>
      <rect class="cls-4" x="221.9" y="36.8" width="1548.2" height="107.5" rx="8.7" ry="8.7"/>
      <path class="cls-2" d="M1761.4,145.4H230.5c-5.4,0-9.8-4.4-9.8-9.8V45.5c0-5.4,4.4-9.8,9.8-9.8h1530.8c5.4,0,9.8,4.4,9.8,9.8v90.2c0,5.4-4.4,9.8-9.8,9.8ZM230.5,37.9c-4.2,0-7.6,3.4-7.6,7.6v90.2c0,4.2,3.4,7.6,7.6,7.6h1530.8c4.2,0,7.6-3.4,7.6-7.6V45.5c0-4.2-3.4-7.6-7.6-7.6H230.5Z"/>
    </g>
    <g>
      <path class="cls-9" d="M1346.4,707.4h148.6c4.8,0,8.7,3.9,8.7,8.7v39.9h-165.9v-39.9c0-4.8,3.9-8.7,8.7-8.7h0Z"/>
      <path class="cls-2" d="M1504.1,756.5h-167v-40.4c0-5.1,4.1-9.2,9.2-9.2h148.6c5.1,0,9.2,4.1,9.2,9.2v40.4ZM1338.2,755.4h164.8v-39.3c0-4.5-3.7-8.1-8.1-8.1h-148.6c-4.5,0-8.1,3.7-8.1,8.1v39.3Z"/>
    </g>
    <g>
      <path class="cls-9" d="M1337.7,755.9h165.9v39.9c0,4.8-3.9,8.7-8.7,8.7h-148.6c-4.8,0-8.7-3.9-8.7-8.7v-39.9h0Z"/>
      <path class="cls-2" d="M1494.9,805h-148.6c-5.1,0-9.2-4.1-9.2-9.2v-40.4h167v40.4c0,5.1-4.1,9.2-9.2,9.2ZM1338.2,756.5v39.3c0,4.5,3.7,8.1,8.1,8.1h148.6c4.5,0,8.1-3.7,8.1-8.1v-39.3h-164.8Z"/>
    </g>
    <g>
      <path class="cls-9" d="M1553.3,707.4h148.6c4.8,0,8.7,3.9,8.7,8.7v39.9h-165.9v-39.9c0-4.8,3.9-8.7,8.7-8.7h0Z"/>
      <path class="cls-2" d="M1711.1,756.5h-167v-40.4c0-5.1,4.1-9.2,9.2-9.2h148.6c5.1,0,9.2,4.1,9.2,9.2v40.4ZM1545.2,755.4h164.8v-39.3c0-4.5-3.7-8.1-8.1-8.1h-148.6c-4.5,0-8.1,3.7-8.1,8.1v39.3Z"/>
    </g>
    <g>
      <path class="cls-9" d="M1544.7,755.9h165.9v39.9c0,4.8-3.9,8.7-8.7,8.7h-148.6c-4.8,0-8.7-3.9-8.7-8.7v-39.9h0Z"/>
      <path class="cls-2" d="M1701.9,805h-148.6c-5.1,0-9.2-4.1-9.2-9.2v-40.4h167v40.4c0,5.1-4.1,9.2-9.2,9.2ZM1545.2,756.5v39.3c0,4.5,3.7,8.1,8.1,8.1h148.6c4.5,0,8.1-3.7,8.1-8.1v-39.3h-164.8Z"/>
    </g>
    <g>
      <rect class="cls-4" x="503.9" y="252" width="131" height="66.1" rx="8.7" ry="8.7"/>
      <path class="cls-2" d="M626.1,318.6h-113.6c-5.1,0-9.2-4.1-9.2-9.2v-48.8c0-5.1,4.1-9.2,9.2-9.2h113.6c5.1,0,9.2,4.1,9.2,9.2v48.8c0,5.1-4.1,9.2-9.2,9.2ZM512.5,252.5c-4.5,0-8.1,3.7-8.1,8.1v48.8c0,4.5,3.6,8.1,8.1,8.1h113.6c4.5,0,8.1-3.6,8.1-8.1v-48.8c0-4.5-3.7-8.1-8.1-8.1h-113.6Z"/>
    </g>
    <g>
      <ellipse class="cls-9" cx="1280.1" cy="567.7" rx="54.8" ry="91.8"/>
      <path class="cls-2" d="M1280.1,660.6c-30.8,0-55.9-41.7-55.9-92.9s25.1-92.9,55.9-92.9,55.9,41.7,55.9,92.9-25.1,92.9-55.9,92.9h0ZM1280.1,476.9c-29.6,0-53.7,40.7-53.7,90.7s24.1,90.7,53.7,90.7,53.7-40.7,53.7-90.7-24.1-90.7-53.7-90.7h0Z"/>
    </g>
    <g>
      <rect class="cls-4" x="1355.2" y="252" width="131" height="66.1" rx="8.7" ry="8.7"/>
      <path class="cls-2" d="M1477.4,318.6h-113.6c-5.1,0-9.2-4.1-9.2-9.2v-48.8c0-5.1,4.1-9.2,9.2-9.2h113.6c5.1,0,9.2,4.1,9.2,9.2v48.8c0,5.1-4.1,9.2-9.2,9.2ZM1363.8,252.5c-4.5,0-8.1,3.7-8.1,8.1v48.8c0,4.5,3.7,8.1,8.1,8.1h113.6c4.5,0,8.1-3.6,8.1-8.1v-48.8c0-4.5-3.7-8.1-8.1-8.1h-113.6Z"/>
    </g>
    <g>
      <path class="cls-9" d="M288.1,707.4h148.6c4.8,0,8.7,3.9,8.7,8.7v39.9h-165.9v-39.9c0-4.8,3.9-8.7,8.7-8.7h0Z"/>
      <path class="cls-2" d="M445.9,756.5h-167v-40.4c0-5.1,4.1-9.2,9.2-9.2h148.5c5.1,0,9.2,4.1,9.2,9.2v40.4h0ZM280,755.4h164.8v-39.3c0-4.5-3.6-8.1-8.1-8.1h-148.6c-4.5,0-8.1,3.7-8.1,8.1v39.3h0Z"/>
    </g>
    <g>
      <path class="cls-9" d="M279.4,755.9h165.9v39.9c0,4.8-3.9,8.7-8.7,8.7h-148.6c-4.8,0-8.7-3.9-8.7-8.7v-39.9h0Z"/>
      <path class="cls-2" d="M436.6,805h-148.5c-5.1,0-9.2-4.1-9.2-9.2v-40.4h167v40.4c0,5.1-4.1,9.2-9.2,9.2h0ZM280,756.5v39.3c0,4.5,3.6,8.1,8.1,8.1h148.6c4.5,0,8.1-3.7,8.1-8.1v-39.3h-164.8Z"/>
    </g>
    <g>
      <path class="cls-9" d="M495.1,707.4h148.5c4.8,0,8.7,3.9,8.7,8.7v39.9h-165.9v-39.9c0-4.8,3.9-8.7,8.7-8.7h0Z"/>
      <path class="cls-2" d="M652.8,756.5h-167v-40.4c0-5.1,4.1-9.2,9.2-9.2h148.5c5.1,0,9.2,4.1,9.2,9.2v40.4ZM486.9,755.4h164.8v-39.3c0-4.5-3.7-8.1-8.1-8.1h-148.5c-4.5,0-8.1,3.7-8.1,8.1v39.3Z"/>
    </g>
    <g>
      <path class="cls-9" d="M486.4,755.9h165.9v39.9c0,4.8-3.9,8.7-8.7,8.7h-148.5c-4.8,0-8.7-3.9-8.7-8.7v-39.9h0Z"/>
      <path class="cls-2" d="M643.6,805h-148.5c-5.1,0-9.2-4.1-9.2-9.2v-40.4h167v40.4c0,5.1-4.1,9.2-9.2,9.2ZM486.9,756.5v39.3c0,4.5,3.6,8.1,8.1,8.1h148.5c4.5,0,8.1-3.7,8.1-8.1v-39.3h-164.8Z"/>
    </g>
    <g>
      <ellipse class="cls-9" cx="711.8" cy="567.7" rx="54.8" ry="91.8"/>
      <path class="cls-2" d="M711.8,660.6c-30.8,0-55.9-41.7-55.9-92.9s25.1-92.9,55.9-92.9,55.9,41.7,55.9,92.9-25.1,92.9-55.9,92.9h0ZM711.8,476.9c-29.6,0-53.7,40.7-53.7,90.7s24.1,90.7,53.7,90.7,53.7-40.7,53.7-90.7-24.1-90.7-53.7-90.7h0Z"/>
    </g>
    <g>
      <rect class="cls-9" x="711.8" y="475.8" width="568.4" height="183.7"/>
      <path class="cls-2" d="M1281.2,660.6h-570.5v-185.8h570.5v185.8ZM712.8,658.4h566.2v-181.5h-566.2v181.5h0Z"/>
    </g>
    <g>
      <path class="cls-6" d="M1280.1,659c-29.9,0-54.3-41-54.3-91.3s24.3-91.3,54.3-91.3,54.3,40.9,54.3,91.3-24.3,91.3-54.3,91.3Z"/>
      <path class="cls-2" d="M1280.1,476.9c29.6,0,53.7,40.7,53.7,90.7s-24.1,90.7-53.7,90.7-53.7-40.7-53.7-90.7,24.1-90.7,53.7-90.7M1280.1,475.8c-30.3,0-54.8,41.1-54.8,91.8s24.5,91.8,54.8,91.8,54.8-41.1,54.8-91.8-24.5-91.8-54.8-91.8h0Z"/>
    </g>
    <g>
      <path class="cls-6" d="M711.8,659c-29.9,0-54.3-41-54.3-91.3s24.3-91.3,54.3-91.3,54.3,40.9,54.3,91.3-24.3,91.3-54.3,91.3Z"/>
      <path class="cls-2" d="M711.8,476.9c29.6,0,53.7,40.7,53.7,90.7s-24.1,90.7-53.7,90.7-53.7-40.7-53.7-90.7,24.1-90.7,53.7-90.7M711.8,475.8c-30.3,0-54.8,41.1-54.8,91.8s24.5,91.8,54.8,91.8,54.8-41.1,54.8-91.8-24.5-91.8-54.8-91.8h0Z"/>
    </g>
    <path class="cls-1" d="M314.8,678.6c-.6,0-1.1-.5-1.1-1.1v-108.4c0-.6.5-1.1,1.1-1.1s1.1.5,1.1,1.1v108.4c0,.6-.5,1.1-1.1,1.1Z"/>
    <g>
      <rect class="cls-1" x="173.8" y="568" width="591.8" height="2.3"/>
      <polygon class="cls-1" points="181.6 559.5 183.2 561.2 174.7 569.2 183.2 577 181.6 578.8 171.2 569.2 181.6 559.5"/>
    </g>
    <path class="cls-1" d="M362.4,570.2c-.6,0-1.1-.5-1.1-1.1v-72.4c0-.6.5-1.1,1.1-1.1s1.1.5,1.1,1.1v72.4c0,.6-.5,1.1-1.1,1.1Z"/>
    <g>
      <rect class="cls-4" x="296.9" y="666" width="131" height="72.1" rx="8.7" ry="8.7"/>
      <path class="cls-2" d="M419.2,738.6h-113.6c-5.1,0-9.2-4.1-9.2-9.2v-54.7c0-5.1,4.1-9.2,9.2-9.2h113.6c5.1,0,9.2,4.1,9.2,9.2v54.7c0,5.1-4.1,9.2-9.2,9.2ZM305.5,666.5c-4.5,0-8.1,3.7-8.1,8.1v54.7c0,4.5,3.6,8.1,8.1,8.1h113.6c4.5,0,8.1-3.7,8.1-8.1v-54.7c0-4.5-3.6-8.1-8.1-8.1h-113.6Z"/>
    </g>
    <rect class="cls-1" x="524" y="569.2" width="2.3" height="108.3"/>
    <g>
      <rect class="cls-4" x="678.7" y="508.3" width="66.1" height="118.7" rx="8.7" ry="8.7"/>
      <path class="cls-2" d="M736.2,627.5h-48.8c-5.1,0-9.2-4.1-9.2-9.2v-101.3c0-5.1,4.1-9.2,9.2-9.2h48.8c5.1,0,9.2,4.1,9.2,9.2v101.3c0,5.1-4.1,9.2-9.2,9.2ZM687.4,508.9c-4.5,0-8.1,3.7-8.1,8.1v101.3c0,4.5,3.7,8.1,8.1,8.1h48.8c4.5,0,8.1-3.7,8.1-8.1v-101.3c0-4.5-3.7-8.1-8.1-8.1h-48.8Z"/>
    </g>
    <path class="cls-7" d="M1627.6,570.4c-.7,0-1.2-.5-1.2-1.2v-72.4c0-.6.5-1.2,1.2-1.2s1.2.5,1.2,1.2v72.4c0,.7-.5,1.2-1.2,1.2Z"/>
    <g>
      <rect class="cls-1" x="1226" y="568" width="590.2" height="2.3"/>
      <polygon class="cls-1" points="1808.4 578.8 1806.8 577 1815.3 569.2 1806.8 561.3 1808.4 559.5 1818.8 569.2 1808.4 578.8"/>
    </g>
    <path class="cls-1" d="M1376.3,678.6c-.6,0-1.1-.5-1.1-1.1v-108.4c0-.6.5-1.1,1.1-1.1s1.1.5,1.1,1.1v108.4c0,.6-.5,1.1-1.1,1.1Z"/>
    <rect class="cls-1" x="1585.5" y="569.2" width="2.3" height="108.4"/>
    <g>
      <rect class="cls-4" x="1247.1" y="508.3" width="66.1" height="118.7" rx="8.7" ry="8.7"/>
      <path class="cls-2" d="M1304.5,627.5h-48.8c-5.1,0-9.2-4.1-9.2-9.2v-101.3c0-5.1,4.1-9.2,9.2-9.2h48.8c5.1,0,9.2,4.1,9.2,9.2v101.3c0,5.1-4.1,9.2-9.2,9.2ZM1255.8,508.9c-4.5,0-8.1,3.7-8.1,8.1v101.3c0,4.5,3.7,8.1,8.1,8.1h48.8c4.5,0,8.1-3.7,8.1-8.1v-101.3c0-4.5-3.7-8.1-8.1-8.1h-48.8Z"/>
    </g>
    <g>
      <rect class="cls-7" x="296.9" y="365.8" width="131" height="131" rx="8.7" ry="8.7"/>
      <path class="cls-1" d="M419.2,497.3h-113.6c-5.1,0-9.2-4.1-9.2-9.2v-113.6c0-5.1,4.1-9.2,9.2-9.2h113.6c5.1,0,9.2,4.1,9.2,9.2v113.6c0,5.1-4.1,9.2-9.2,9.2ZM305.5,366.4c-4.5,0-8.1,3.6-8.1,8.1v113.6c0,4.5,3.6,8.1,8.1,8.1h113.6c4.5,0,8.1-3.6,8.1-8.1v-113.6c0-4.5-3.6-8.1-8.1-8.1h-113.6Z"/>
    </g>
    <path class="cls-2" d="M1280.1,660c-30.5,0-55.3-41.4-55.3-92.4s24.8-92.4,55.3-92.4v1.1c-29.9,0-54.3,40.9-54.3,91.3s24.3,91.3,54.3,91.3v1.1Z"/>
    <path class="cls-2" d="M711.8,660v-1.1c29.9,0,54.3-41,54.3-91.3s-24.3-91.3-54.3-91.3v-1.1c30.5,0,55.3,41.4,55.3,92.4s-24.8,92.4-55.3,92.4Z"/>
    <g>
      <rect class="cls-7" x="1562.1" y="365.8" width="131" height="131" rx="8.7" ry="8.7"/>
      <path class="cls-1" d="M1680.1,497.3c-.3,0-.5-.2-.5-.5s.2-.5.5-.5h4.3c.3,0,.6.2.6.5s-.2.5-.5.5v-.5.5h-4.4ZM1671.4,497.3h-4.3c-.3,0-.5-.2-.5-.5s.2-.5.5-.5h4.3c.3,0,.5.2.5.5s-.2.5-.5.5ZM1658.3,497.3h-4.3c-.3,0-.5-.2-.5-.5s.2-.5.5-.5h4.3c.3,0,.5.2.5.5s-.2.5-.5.5ZM1645.3,497.3h-4.3c-.3,0-.5-.2-.5-.5s.2-.5.5-.5h4.3c.3,0,.5.2.5.5s-.2.5-.5.5ZM1632.2,497.3h-4.3c-.3,0-.5-.2-.5-.5s.2-.5.5-.5h4.3c.3,0,.5.2.5.5s-.2.5-.5.5ZM1619.2,497.3h-4.3c-.3,0-.5-.2-.5-.5s.2-.5.5-.5h4.3c.3,0,.5.2.5.5s-.2.5-.5.5ZM1606.1,497.3h-4.3c-.3,0-.5-.2-.5-.5s.2-.5.5-.5h4.3c.3,0,.5.2.5.5s-.2.5-.5.5ZM1593.1,497.3h-4.3c-.3,0-.5-.2-.5-.5s.2-.5.5-.5h4.3c.3,0,.5.2.5.5s-.2.5-.5.5ZM1580,497.3h-4.3c-.3,0-.5-.2-.5-.5s.2-.5.5-.5h4.3c.3,0,.5.2.5.5s-.2.5-.5.5ZM1567.1,496.5c0,0-.2,0-.2,0-1.4-.7-2.6-1.7-3.5-2.9-.2-.2-.1-.6.1-.8.2-.2.6-.1.8.1.8,1.1,1.9,2,3.1,2.6.3.1.4.5.3.7,0,.2-.3.3-.5.3h0ZM1691.8,493.3c0,0-.2,0-.3,0-.2-.2-.3-.5-.2-.8.7-1.1,1.2-2.5,1.2-3.8,0-.3.3-.5.6-.5.3,0,.5.3.5.6,0,1.5-.6,3-1.4,4.4,0,.2-.3.2-.5.2h0ZM1562.1,485.4c-.3,0-.5-.2-.5-.5v-4.4c0-.3.2-.5.5-.5s.5.2.5.5v4.4c0,.3-.2.5-.5.5ZM1693.1,480.5c-.3,0-.5-.2-.5-.5v-4.4c0-.3.2-.5.5-.5s.5.2.5.5v4.4c0,.3-.2.5-.5.5ZM1562.1,472.3c-.3,0-.5-.2-.5-.5v-4.4c0-.3.2-.5.5-.5s.5.2.5.5v4.4c0,.3-.2.5-.5.5ZM1693.1,467.4c-.3,0-.5-.2-.5-.5v-4.4c0-.3.2-.5.5-.5s.5.2.5.5v4.4c0,.3-.2.5-.5.5ZM1562.1,459.3c-.3,0-.5-.2-.5-.5v-4.4c0-.3.2-.5.5-.5s.5.2.5.5v4.4c0,.3-.2.5-.5.5ZM1693.1,454.4c-.3,0-.5-.2-.5-.5v-4.4c0-.3.2-.5.5-.5s.5.2.5.5v4.4c0,.3-.2.5-.5.5ZM1562.1,446.2c-.3,0-.5-.2-.5-.5v-4.4c0-.3.2-.5.5-.5s.5.2.5.5v4.4c0,.3-.2.5-.5.5ZM1693.1,441.3c-.3,0-.5-.2-.5-.5v-4.4c0-.3.2-.5.5-.5s.5.2.5.5v4.4c0,.3-.2.5-.5.5ZM1562.1,433.2c-.3,0-.5-.2-.5-.5v-4.4c0-.3.2-.5.5-.5s.5.2.5.5v4.4c0,.3-.2.5-.5.5ZM1693.1,428.3c-.3,0-.5-.2-.5-.5v-4.4c0-.3.2-.5.5-.5s.5.2.5.5v4.4c0,.3-.2.5-.5.5ZM1562.1,420.1c-.3,0-.5-.2-.5-.5v-4.4c0-.3.2-.5.5-.5s.5.2.5.5v4.4c0,.3-.2.5-.5.5ZM1693.1,415.2c-.3,0-.5-.2-.5-.5v-4.4c0-.3.2-.5.5-.5s.5.2.5.5v4.4c0,.3-.2.5-.5.5ZM1562.1,407.1c-.3,0-.5-.2-.5-.5v-4.4c0-.3.2-.5.5-.5s.5.2.5.5v4.4c0,.3-.2.5-.5.5ZM1693.1,402.2c-.3,0-.5-.2-.5-.5v-4.4c0-.3.2-.5.5-.5s.5.2.5.5v4.4c0,.3-.2.5-.5.5ZM1562.1,394c-.3,0-.5-.2-.5-.5v-4.4c0-.3.2-.5.5-.5s.5.2.5.5v4.4c0,.3-.2.5-.5.5ZM1693.1,389.1c-.3,0-.5-.2-.5-.5v-4.4c0-.3.2-.5.5-.5s.5.2.5.5v4.4c0,.3-.2.5-.5.5ZM1562.1,381c-.3,0-.5-.2-.5-.5v-4.4c0-.3.2-.5.5-.5s.5.2.5.5v4.4c0,.3-.2.5-.5.5ZM1693.1,376.1c-.3,0-.5-.2-.5-.5v-1.1c0-1-.2-2-.6-3-.1-.3,0-.6.3-.7.3-.1.6,0,.7.3.4,1.1.7,2.2.7,3.4v1.1c0,.3-.2.5-.5.5h0ZM1564.8,368.7c-.1,0-.3,0-.4-.2-.2-.2-.2-.6,0-.8,1.1-1.1,2.5-1.8,4-2.2.3,0,.6.1.7.4,0,.3,0,.6-.4.7-1.3.3-2.5,1-3.5,2,0,.1-.2.1-.4.1h0ZM1686,366.5h0c-.5,0-1-.1-1.5-.1h-2.7c-.3,0-.5-.2-.5-.5s.2-.5.5-.5h2.7c.6,0,1.2,0,1.7.2.3,0,.5.3.4.6,0,.3-.3.4-.5.4h0ZM1673,366.4h-4.3c-.3,0-.5-.2-.5-.5s.2-.5.5-.5h4.3c.3,0,.5.2.5.5s-.2.5-.5.5ZM1659.9,366.4h-4.3c-.3,0-.5-.2-.5-.5s.2-.5.5-.5h4.3c.3,0,.5.2.5.5s-.2.5-.5.5ZM1646.9,366.4h-4.3c-.3,0-.5-.2-.5-.5s.2-.5.5-.5h4.3c.3,0,.5.2.5.5s-.2.5-.5.5ZM1633.8,366.4h-4.3c-.3,0-.5-.2-.5-.5s.2-.5.5-.5h4.3c.3,0,.5.2.5.5s-.2.5-.5.5ZM1620.8,366.4h-4.3c-.3,0-.5-.2-.5-.5s.2-.5.5-.5h4.3c.3,0,.5.2.5.5s-.2.5-.5.5ZM1607.8,366.4h-4.3c-.3,0-.5-.2-.5-.5s.2-.5.5-.5h4.3c.3,0,.5.2.5.5s-.2.5-.5.5ZM1594.7,366.4h-4.3c-.3,0-.5-.2-.5-.5s.2-.5.5-.5h4.3c.3,0,.5.2.5.5s-.2.5-.5.5ZM1581.7,366.4h-4.3c-.3,0-.5-.2-.5-.5s.2-.5.5-.5h4.3c.3,0,.5.2.5.5s-.2.5-.5.5Z"/>
    </g>
    <g>
      <rect class="cls-4" x="503.9" y="666" width="131" height="72.1" rx="8.7" ry="8.7"/>
      <path class="cls-2" d="M626.1,738.6h-113.6c-5.1,0-9.2-4.1-9.2-9.2v-54.7c0-5.1,4.1-9.2,9.2-9.2h113.6c5.1,0,9.2,4.1,9.2,9.2v54.7c0,5.1-4.1,9.2-9.2,9.2ZM512.5,666.5c-4.5,0-8.1,3.7-8.1,8.1v54.7c0,4.5,3.6,8.1,8.1,8.1h113.6c4.5,0,8.1-3.7,8.1-8.1v-54.7c0-4.5-3.7-8.1-8.1-8.1h-113.6Z"/>
    </g>
    <g>
      <rect class="cls-4" x="1355.2" y="666" width="131" height="72.1" rx="8.7" ry="8.7"/>
      <path class="cls-2" d="M1477.4,738.6h-113.6c-5.1,0-9.2-4.1-9.2-9.2v-54.7c0-5.1,4.1-9.2,9.2-9.2h113.6c5.1,0,9.2,4.1,9.2,9.2v54.7c0,5.1-4.1,9.2-9.2,9.2ZM1363.8,666.5c-4.5,0-8.1,3.7-8.1,8.1v54.7c0,4.5,3.7,8.1,8.1,8.1h113.6c4.5,0,8.1-3.7,8.1-8.1v-54.7c0-4.5-3.7-8.1-8.1-8.1h-113.6Z"/>
    </g>
    <g>
      <rect class="cls-4" x="1562.1" y="666" width="131" height="72.1" rx="8.7" ry="8.7"/>
      <path class="cls-2" d="M1684.4,738.6h-113.6c-5.1,0-9.2-4.1-9.2-9.2v-54.7c0-5.1,4.1-9.2,9.2-9.2h113.6c5.1,0,9.2,4.1,9.2,9.2v54.7c0,5.1-4.1,9.2-9.2,9.2ZM1570.8,666.5c-4.5,0-8.1,3.7-8.1,8.1v54.7c0,4.5,3.7,8.1,8.1,8.1h113.6c4.5,0,8.1-3.7,8.1-8.1v-54.7c0-4.5-3.7-8.1-8.1-8.1h-113.6Z"/>
    </g>
  </g>
  <g id="text">
    <g>
      <path class="cls-8" d="M895.3,104.2c-1.5,0-2.8-.2-3.8-.6-1.1-.4-1.9-1-2.6-1.8-.7-.8-1.2-1.7-1.5-2.7-.3-1-.5-2.2-.5-3.4v-13.5h4v13.2c0,1,.1,1.8.3,2.5.2.7.5,1.3.9,1.7s.9.8,1.4,1,1.2.3,1.9.3,1.3,0,1.9-.3c.6-.2,1-.5,1.5-1,.4-.4.7-1,.9-1.7.2-.7.3-1.5.3-2.5v-13.2h4v13.5c0,1.2-.2,2.4-.5,3.4-.3,1-.9,1.9-1.6,2.7s-1.6,1.4-2.7,1.8c-1.1.4-2.4.6-3.8.6Z"/>
      <path class="cls-8" d="M923.5,95.6c0,1.2-.2,2.4-.5,3.4s-.8,1.9-1.4,2.7-1.4,1.3-2.3,1.8c-.9.4-1.9.6-3.1.6s-1.5,0-2.1-.3-1.2-.4-1.6-.6v6.3h-3.8v-21.6c.8-.2,1.7-.4,2.8-.6s2.3-.3,3.6-.3,2.5.2,3.5.6c1,.4,1.9,1,2.6,1.7s1.3,1.6,1.7,2.7c.4,1.1.6,2.2.6,3.6h0ZM919.6,95.6c0-1.7-.4-3-1.1-3.9s-2-1.4-3.7-1.4-.7,0-1.1,0-.8,0-1.1.2v9.3c.3.2.8.4,1.3.6s1.1.3,1.8.3c1.4,0,2.4-.5,3-1.4s1-2.2,1-3.8h0Z"/>
      <path class="cls-8" d="M933.1,104.1c-1.1,0-2.1-.2-2.8-.4-.7-.2-1.3-.6-1.8-1s-.8-1-.9-1.6c-.2-.6-.3-1.4-.3-2.2v-18.8l3.8-.6v18.7c0,.5,0,.8.1,1.2,0,.3.2.6.4.8s.4.4.8.5c.3.1.7.2,1.2.3l-.5,3.1h0Z"/>
      <path class="cls-8" d="M940.9,82.6c0,.7-.2,1.3-.7,1.7-.5.4-1,.6-1.6.6s-1.2-.2-1.7-.6c-.5-.4-.7-1-.7-1.7s.2-1.3.7-1.7,1-.6,1.7-.6,1.2.2,1.6.6c.5.4.7,1,.7,1.7ZM940.5,103.7h-3.8v-16.4h3.8v16.4Z"/>
      <path class="cls-8" d="M945.3,87.9c.7-.2,1.7-.4,2.8-.6,1.2-.2,2.5-.3,3.9-.3s2.5.2,3.3.6c.9.4,1.6.9,2.1,1.5.5.7.9,1.4,1.1,2.4s.3,1.9.3,3.1v9.2h-3.8v-8.6c0-.9,0-1.6-.2-2.2-.1-.6-.3-1.1-.6-1.5-.3-.4-.6-.7-1.1-.8-.5-.2-1-.3-1.6-.3s-1,0-1.5,0-.9.1-1.2.2v13.2h-3.8v-15.8h0Z"/>
      <path class="cls-8" d="M967.4,93.8c.5-.5,1-1,1.5-1.6.5-.6,1.1-1.2,1.6-1.7.5-.6,1-1.1,1.5-1.7.5-.5.9-1,1.2-1.4h4.5c-1,1.2-2.1,2.4-3.3,3.6-1.2,1.2-2.3,2.5-3.5,3.7.6.5,1.3,1.2,2,1.9.7.7,1.3,1.5,2,2.4s1.2,1.7,1.8,2.5,1,1.6,1.4,2.3h-4.4c-.4-.7-.8-1.3-1.3-2s-1-1.4-1.6-2.1c-.6-.7-1.1-1.3-1.7-1.9-.6-.6-1.2-1.1-1.7-1.5v7.5h-3.8v-23.7l3.8-.6v14.3h0Z"/>
      <path class="cls-8" d="M988.1,87.9c.7-.2,1.7-.4,2.8-.6,1.2-.2,2.5-.3,3.9-.3s2.5.2,3.3.6c.9.4,1.6.9,2.1,1.5.5.7.9,1.4,1.1,2.4s.3,1.9.3,3.1v9.2h-3.8v-8.6c0-.9,0-1.6-.2-2.2-.1-.6-.3-1.1-.6-1.5s-.6-.7-1.1-.8c-.5-.2-1-.3-1.6-.3s-1,0-1.5,0-.9.1-1.2.2v13.2h-3.8v-15.8h0Z"/>
      <path class="cls-8" d="M1005.5,95.6c0-1.4.2-2.7.6-3.8.4-1.1,1-2,1.7-2.7.7-.7,1.5-1.3,2.4-1.6.9-.4,1.9-.6,2.8-.6,2.2,0,4,.7,5.3,2.1s1.9,3.5,1.9,6.2,0,.4,0,.7,0,.5,0,.7h-10.8c0,1.3.6,2.3,1.4,3.1s2,1.1,3.6,1.1,1.8,0,2.5-.2,1.4-.3,1.8-.5l.5,3.1c-.2,0-.5.2-.9.3-.4.1-.8.2-1.2.3s-1,.2-1.5.2-1.1,0-1.7,0c-1.4,0-2.7-.2-3.8-.6s-1.9-1-2.6-1.8-1.2-1.7-1.5-2.7-.5-2.2-.5-3.4h0ZM1016.5,93.9c0-.5,0-1-.2-1.5-.2-.5-.4-.9-.6-1.2-.3-.3-.6-.6-1-.8-.4-.2-.9-.3-1.5-.3s-1.1.1-1.5.3-.8.5-1.1.9-.5.8-.7,1.2-.3.9-.3,1.4h7,0Z"/>
      <path class="cls-8" d="M1024.1,83.1l3.8-.6v4.9h5.8v3.2h-5.8v6.7c0,1.3.2,2.2.6,2.8s1.1.8,2.1.8,1.3,0,1.8-.2c.5-.2.9-.3,1.3-.4l.6,3c-.4.2-1,.4-1.7.6-.7.2-1.5.3-2.5.3s-2.1-.2-2.9-.5-1.4-.8-1.9-1.4c-.5-.6-.8-1.3-1-2.2-.2-.8-.3-1.8-.3-2.9v-14.2h0Z"/>
      <path class="cls-8" d="M1047.1,93.4c-.5,1.8-1,3.6-1.6,5.4s-1.1,3.4-1.6,4.9h-3.1c-.4-1-.9-2.1-1.3-3.3-.5-1.2-.9-2.5-1.4-3.9s-.9-2.9-1.4-4.4c-.5-1.5-.9-3.1-1.3-4.7h4c.2.9.4,1.8.7,2.8s.5,2,.8,3.1c.3,1.1.6,2.1.8,3.1.3,1,.6,1.9.9,2.8.3-1,.6-1.9.9-3,.3-1,.6-2,.9-3.1.3-1,.5-2,.8-3s.4-1.9.6-2.7h2.9c.2.9.4,1.8.6,2.7.2,1,.5,2,.7,3,.3,1,.5,2,.8,3.1s.6,2,.9,3c.3-.8.6-1.8.8-2.8s.6-2,.9-3.1.6-2.1.8-3.1.5-2,.7-2.8h3.9c-.4,1.6-.9,3.2-1.3,4.7s-.9,3-1.4,4.4-.9,2.7-1.4,3.9-.9,2.3-1.3,3.3h-3.1c-.5-1.5-1.1-3.2-1.7-4.9-.6-1.7-1.1-3.5-1.6-5.4h0Z"/>
      <path class="cls-8" d="M1076.2,95.6c0,1.3-.2,2.5-.6,3.5-.4,1.1-.9,2-1.6,2.7s-1.5,1.3-2.5,1.8-2,.6-3.2.6-2.2-.2-3.2-.6c-1-.4-1.8-1-2.5-1.8s-1.2-1.7-1.6-2.7-.6-2.2-.6-3.5.2-2.5.6-3.5c.4-1.1.9-1.9,1.6-2.7s1.5-1.3,2.5-1.7c1-.4,2-.6,3.2-.6s2.2.2,3.2.6c1,.4,1.8,1,2.5,1.7s1.2,1.7,1.6,2.7c.4,1.1.6,2.2.6,3.5h0ZM1072.3,95.6c0-1.6-.3-2.9-1.1-3.9-.7-.9-1.7-1.4-2.9-1.4s-2.2.5-2.9,1.4c-.7.9-1.1,2.2-1.1,3.9s.3,2.9,1.1,3.9c.7,1,1.7,1.4,2.9,1.4s2.2-.5,2.9-1.4c.7-1,1.1-2.3,1.1-3.9Z"/>
      <path class="cls-8" d="M1089.4,90.8c-.3,0-.8-.2-1.3-.3-.6-.1-1.2-.2-1.9-.2s-.9,0-1.3.1-.8.2-1,.2v13.1h-3.8v-15.6c.7-.3,1.6-.5,2.7-.8,1.1-.2,2.3-.4,3.6-.4s.5,0,.9,0c.3,0,.7,0,1,.1s.7.1,1,.2c.3,0,.6.1.8.2l-.7,3.2h0Z"/>
      <path class="cls-8" d="M1096.5,93.8c.5-.5,1-1,1.5-1.6s1.1-1.2,1.6-1.7,1-1.1,1.5-1.7c.5-.5.9-1,1.2-1.4h4.5c-1,1.2-2.1,2.4-3.3,3.6s-2.3,2.5-3.5,3.7c.6.5,1.3,1.2,2,1.9s1.3,1.5,2,2.4,1.2,1.7,1.8,2.5,1,1.6,1.4,2.3h-4.4c-.4-.7-.8-1.3-1.3-2s-1-1.4-1.6-2.1c-.6-.7-1.1-1.3-1.7-1.9s-1.2-1.1-1.7-1.5v7.5h-3.8v-23.7l3.8-.6v14.3h0Z"/>
    </g>
    <g>
      <path class="cls-5" d="M242.5,315.9c-1.2,0-2.2-.2-3.2-.6-1-.4-1.9-1-2.6-1.8s-1.3-1.8-1.7-3c-.4-1.2-.6-2.5-.6-4s.2-2.9.7-4c.5-1.2,1.1-2.1,1.8-3,.8-.8,1.6-1.4,2.6-1.8s2.1-.6,3.1-.6,1.3,0,1.9.1c.6,0,1,.2,1.5.3.4.1.8.3,1.1.4.3.1.5.2.7.4l-.6,1.5c-.4-.3-1-.5-1.6-.8s-1.5-.4-2.5-.4-2.1.2-2.9.6-1.6.9-2.1,1.6c-.6.7-1,1.5-1.3,2.5s-.4,2-.4,3.2.1,2.3.4,3.2.7,1.8,1.3,2.5c.6.7,1.2,1.2,2,1.6.8.4,1.7.5,2.8.5s2.1-.1,2.9-.3,1.4-.4,1.8-.7l.5,1.5c-.1,0-.3.2-.6.3s-.7.2-1.1.4-1,.2-1.6.3-1.2.1-2,.1h0Z"/>
      <path class="cls-5" d="M254.2,315.7c-.6,0-1.1,0-1.5-.2-.4-.1-.8-.3-1.1-.6s-.5-.6-.6-1-.2-1-.2-1.6v-16.6l1.7-.3v16.9c0,.4,0,.8.1,1s.2.5.4.6c.2.1.4.3.6.3.2,0,.6.1.9.2l-.2,1.4h0Z"/>
      <path class="cls-5" d="M267.7,315c-.5.1-1.2.3-2,.5-.9.2-1.9.3-3.1.3s-1.9-.1-2.5-.4c-.7-.3-1.2-.7-1.6-1.2s-.7-1.2-.9-2c-.2-.8-.3-1.6-.3-2.5v-7.5h1.7v7c0,1,0,1.8.2,2.4s.4,1.2.7,1.6c.3.4.7.7,1.2.9.5.2,1.1.3,1.8.3s1.5,0,2.1-.1,1-.2,1.1-.2v-11.8h1.7v13h0Z"/>
      <path class="cls-5" d="M275,314.3c1,0,1.8-.2,2.4-.5.6-.3,1-.9,1-1.6s0-.7-.2-.9c-.1-.3-.3-.5-.6-.7-.3-.2-.6-.4-1-.6s-1-.4-1.6-.7c-.5-.2-1-.4-1.4-.6s-.9-.5-1.2-.8c-.4-.3-.6-.6-.8-1s-.3-.9-.3-1.5c0-1.1.4-2,1.2-2.6.8-.7,2-1,3.4-1s1.7,0,2.3.2c.6.2,1,.3,1.3.4l-.4,1.5c-.2-.1-.6-.2-1-.4-.5-.2-1.2-.3-2.2-.3s-.7,0-1.1.1-.6.2-.9.4c-.3.2-.5.4-.6.6-.2.2-.2.6-.2.9s0,.7.2.9.3.5.6.7.6.4,1,.6c.4.2.8.4,1.3.6.5.2,1,.4,1.5.6s.9.5,1.3.8.7.7.9,1.1c.2.4.3,1,.3,1.6,0,1.2-.5,2.1-1.4,2.8-.9.6-2.2.9-3.7.9s-2.1-.1-2.7-.3c-.6-.2-1-.4-1.2-.5l.4-1.5s.2,0,.3.2c.2,0,.4.2.7.3.3.1.6.2,1,.2.4,0,.9.1,1.4.1h0Z"/>
      <path class="cls-5" d="M284.9,302.1h5.4v1.4h-5.4v7.1c0,.8,0,1.4.2,1.9.1.5.3.8.6,1.1.2.3.5.4.9.5.4,0,.7.1,1.1.1.7,0,1.3,0,1.7-.2.4-.2.8-.3,1-.5l.4,1.4c-.2.2-.7.3-1.3.5-.6.2-1.3.3-2,.3s-1.5-.1-2.1-.3-1-.5-1.4-1-.6-1-.7-1.6-.2-1.4-.2-2.3v-12.4l1.7-.3v4.3h0Z"/>
      <path class="cls-5" d="M292.6,308.8c0-1.2.2-2.2.5-3.1.3-.9.8-1.6,1.3-2.2.5-.6,1.2-1,1.9-1.3s1.4-.4,2.2-.4c1.6,0,3,.5,3.9,1.6s1.5,2.7,1.5,5,0,.3,0,.4,0,.3,0,.4h-9.4c0,1.6.5,2.9,1.2,3.8.8.9,2,1.3,3.6,1.3s1.6,0,2.2-.3c.5-.2.9-.3,1.2-.4l.3,1.5c-.2.1-.7.3-1.4.5-.7.2-1.5.3-2.4.3s-2.2-.2-3-.5-1.5-.8-2-1.5c-.5-.6-.9-1.4-1.2-2.2s-.4-1.8-.4-2.8h0ZM302.1,307.7c0-1.4-.4-2.5-1-3.3-.6-.8-1.5-1.2-2.6-1.2s-1.1.1-1.6.4-.9.6-1.2,1c-.4.4-.6.9-.8,1.4-.2.5-.3,1.1-.4,1.7h7.7,0Z"/>
      <path class="cls-5" d="M312.2,301.8c.5,0,1.1,0,1.6.1.5,0,.8.2,1,.3l-.3,1.5c-.1,0-.4-.1-.8-.2-.4,0-1-.1-1.7-.1s-1.3,0-1.8.2c-.4.1-.7.2-.9.3v11.8h-1.7v-12.8c.4-.2,1-.4,1.8-.6.8-.2,1.7-.3,2.8-.3h0Z"/>
      <path class="cls-5" d="M323.3,302.5c.5-.1,1.2-.3,2-.5.8-.2,1.9-.3,3.1-.3s2.9.5,3.7,1.5c0,0,.3-.2.5-.4.2-.2.6-.3,1-.5.4-.2.8-.3,1.3-.4s1.1-.2,1.7-.2c1,0,1.9.1,2.5.5.6.3,1.1.7,1.5,1.3.4.5.6,1.2.7,2,.1.8.2,1.6.2,2.5v7.5h-1.7v-7c0-.9,0-1.6-.1-2.3s-.2-1.2-.5-1.6-.6-.8-1-1c-.4-.2-1-.3-1.7-.3s-1,0-1.4.1c-.4.1-.8.2-1.1.4-.3.1-.6.3-.8.4-.2.1-.3.2-.4.3.2.5.3,1,.4,1.5s.1,1.2.1,1.8v7.6h-1.7v-7c0-.9,0-1.6-.1-2.3s-.2-1.2-.5-1.6c-.2-.4-.6-.8-1-1-.4-.2-1-.3-1.8-.3s-1.5,0-2.1.1-.9.2-1.1.2v11.8h-1.7v-13h0Z"/>
      <path class="cls-5" d="M345,308.8c0-1.2.2-2.2.5-3.1.3-.9.8-1.6,1.3-2.2.5-.6,1.2-1,1.9-1.3s1.4-.4,2.2-.4c1.6,0,3,.5,3.9,1.6s1.5,2.7,1.5,5,0,.3,0,.4,0,.3,0,.4h-9.4c0,1.6.5,2.9,1.2,3.8.8.9,2,1.3,3.6,1.3s1.6,0,2.2-.3c.5-.2.9-.3,1.2-.4l.3,1.5c-.2.1-.7.3-1.4.5-.7.2-1.5.3-2.4.3s-2.2-.2-3-.5-1.5-.8-2-1.5c-.5-.6-.9-1.4-1.2-2.2s-.4-1.8-.4-2.8h0ZM354.5,307.7c0-1.4-.4-2.5-1-3.3-.6-.8-1.5-1.2-2.6-1.2s-1.1.1-1.6.4-.9.6-1.2,1c-.4.4-.6.9-.8,1.4-.2.5-.3,1.1-.4,1.7h7.7,0Z"/>
      <path class="cls-5" d="M360,302.5c.5-.1,1.2-.3,2-.5.8-.2,1.9-.3,3.1-.3s2.9.5,3.7,1.5c0,0,.3-.2.5-.4.2-.2.6-.3,1-.5.4-.2.8-.3,1.3-.4s1.1-.2,1.7-.2c1,0,1.9.1,2.5.5.6.3,1.1.7,1.5,1.3.4.5.6,1.2.7,2,.1.8.2,1.6.2,2.5v7.5h-1.7v-7c0-.9,0-1.6-.1-2.3s-.2-1.2-.5-1.6c-.2-.4-.6-.8-1-1s-1-.3-1.7-.3-1,0-1.4.1c-.4.1-.8.2-1.1.4s-.6.3-.8.4-.3.2-.4.3c.2.5.3,1,.4,1.5s.1,1.2.1,1.8v7.6h-1.7v-7c0-.9,0-1.6-.1-2.3s-.2-1.2-.5-1.6-.6-.8-1-1-1-.3-1.8-.3-1.5,0-2.1.1c-.6,0-.9.2-1.1.2v11.8h-1.7v-13h0Z"/>
      <path class="cls-5" d="M384.1,302.9c.3-.2.8-.5,1.4-.7.6-.2,1.4-.4,2.3-.4s1.8.2,2.6.5c.8.4,1.4.8,1.9,1.5.5.6.9,1.4,1.2,2.2.3.9.4,1.8.4,2.8s-.2,2.1-.5,2.9-.8,1.6-1.4,2.2c-.6.6-1.3,1.1-2.1,1.4s-1.7.5-2.7.5-2.2,0-3-.2c-.8-.2-1.4-.3-1.9-.5v-19.5l1.7-.3v7.5h0ZM384.1,313.9c.3,0,.6.2,1.2.2s1.2.1,2,.1c1.5,0,2.6-.5,3.5-1.4s1.3-2.3,1.3-4.1,0-1.5-.2-2.1c-.2-.7-.4-1.2-.8-1.7-.4-.5-.8-.9-1.4-1.2s-1.3-.4-2.1-.4-.8,0-1.1.1-.7.2-1,.3-.6.2-.8.4-.4.3-.6.4v9.4h0Z"/>
      <path class="cls-5" d="M396.8,308.8c0-1.2.2-2.2.5-3.1.3-.9.8-1.6,1.3-2.2.5-.6,1.2-1,1.9-1.3s1.4-.4,2.2-.4c1.6,0,3,.5,3.9,1.6s1.5,2.7,1.5,5,0,.3,0,.4,0,.3,0,.4h-9.4c0,1.6.5,2.9,1.2,3.8.8.9,2,1.3,3.6,1.3s1.6,0,2.2-.3c.5-.2.9-.3,1.2-.4l.3,1.5c-.2.1-.7.3-1.4.5-.7.2-1.5.3-2.4.3s-2.2-.2-3-.5-1.5-.8-2-1.5c-.5-.6-.9-1.4-1.2-2.2s-.4-1.8-.4-2.8h0ZM406.4,307.7c0-1.4-.4-2.5-1-3.3-.6-.8-1.5-1.2-2.6-1.2s-1.1.1-1.6.4-.9.6-1.2,1c-.4.4-.6.9-.8,1.4-.2.5-.3,1.1-.4,1.7h7.7,0Z"/>
      <path class="cls-5" d="M416.5,301.8c.5,0,1.1,0,1.6.1.5,0,.8.2,1,.3l-.3,1.5c-.1,0-.4-.1-.8-.2-.4,0-1-.1-1.7-.1s-1.3,0-1.8.2c-.4.1-.7.2-.9.3v11.8h-1.7v-12.8c.4-.2,1-.4,1.8-.6.8-.2,1.7-.3,2.8-.3h0Z"/>
      <path class="cls-5" d="M428.1,301.2c1-.4,2-.8,2.8-1.4.8-.6,1.6-1.3,2.4-2.3h1.2v18h-1.7v-15.5c-.2.2-.4.4-.7.6-.3.2-.6.5-1,.7-.4.2-.8.4-1.2.6s-.8.4-1.2.5l-.5-1.3h0Z"/>
    </g>
    <g>
      <path class="cls-5" d="M70.2,502c0,1.5-.2,2.9-.7,4.1s-1.1,2.2-1.8,3c-.8.8-1.7,1.4-2.7,1.8-1,.4-2.1.6-3.2.6s-2.2-.2-3.2-.6-1.9-1-2.7-1.8-1.4-1.8-1.8-3-.7-2.5-.7-4.1.2-2.9.7-4.1c.5-1.2,1.1-2.1,1.8-2.9s1.7-1.4,2.7-1.8,2.1-.6,3.2-.6,2.2.2,3.2.6c1,.4,1.9,1,2.7,1.8.8.8,1.4,1.8,1.8,2.9.4,1.2.7,2.5.7,4.1ZM68.3,502c0-1.2-.2-2.3-.5-3.3s-.8-1.8-1.3-2.5-1.3-1.2-2.1-1.5c-.8-.4-1.7-.5-2.7-.5s-1.9.2-2.7.5c-.8.4-1.5.9-2.1,1.5s-1,1.5-1.3,2.5c-.3,1-.5,2-.5,3.3s.2,2.3.5,3.3c.3,1,.8,1.8,1.3,2.5.6.7,1.3,1.2,2.1,1.6s1.7.5,2.7.5,1.9-.2,2.7-.5c.8-.4,1.5-.9,2.1-1.6s1-1.5,1.3-2.5c.3-1,.5-2,.5-3.3Z"/>
      <path class="cls-5" d="M73.8,493c.5,1.5,1,3,1.5,4.4.5,1.4,1,2.7,1.4,4s.9,2.6,1.4,3.8,1,2.5,1.6,3.8c.5-1.2,1.1-2.5,1.5-3.7.5-1.2,1-2.5,1.5-3.8.5-1.3,1-2.6,1.4-4,.5-1.4,1-2.9,1.5-4.4h1.9c-.8,2.3-1.5,4.3-2.2,6s-1.2,3.3-1.8,4.6c-.5,1.4-1.1,2.7-1.6,3.8-.5,1.2-1,2.4-1.6,3.5h-1.7c-.5-1.2-1-2.4-1.6-3.6-.5-1.2-1-2.5-1.6-3.8-.6-1.4-1.1-2.9-1.8-4.6-.6-1.7-1.3-3.7-2.1-6h2,0Z"/>
      <path class="cls-5" d="M102.4,511c-.3-.6-.8-1.3-1.3-2.1s-1.1-1.7-1.7-2.6c-.6-.9-1.3-1.9-1.9-2.9-.7-1-1.3-1.9-2-2.9s-1.3-1.8-1.9-2.6c-.6-.8-1.2-1.5-1.7-2.1v15.2h-1.7v-18h1.4c.9,1,1.8,2.1,2.8,3.4,1,1.3,2,2.6,3,4,1,1.3,1.9,2.7,2.7,3.9.8,1.3,1.5,2.4,2.1,3.4v-14.7h1.7v18h-1.5Z"/>
      <path class="cls-5" d="M114.4,498c.5-.1,1.2-.3,2-.5s1.9-.3,3.1-.3,1.9.1,2.6.4,1.2.7,1.6,1.3c.4.5.7,1.2.9,2s.3,1.6.3,2.5v7.5h-1.7v-7c0-1,0-1.8-.2-2.4-.1-.7-.3-1.2-.7-1.6-.3-.4-.7-.7-1.2-.9-.5-.2-1.1-.3-1.9-.3s-1.5,0-2.1.1-1,.2-1.1.2v11.8h-1.7v-13h0Z"/>
      <path class="cls-5" d="M128.4,504.3c0-1.2.2-2.2.5-3.1.3-.9.8-1.6,1.3-2.2.6-.6,1.2-1,1.9-1.3.7-.3,1.4-.4,2.2-.4,1.6,0,3,.5,3.9,1.6,1,1.1,1.5,2.7,1.5,5s0,.3,0,.4c0,.1,0,.3,0,.4h-9.4c0,1.6.5,2.9,1.2,3.8.8.9,2,1.3,3.6,1.3s1.6,0,2.2-.3.9-.3,1.2-.4l.3,1.5c-.2.1-.7.3-1.4.5s-1.4.3-2.4.3-2.2-.2-3-.5-1.5-.8-2.1-1.5c-.5-.6-.9-1.4-1.2-2.2s-.4-1.8-.4-2.8h0ZM138,503.2c0-1.4-.4-2.5-1-3.3-.6-.8-1.5-1.2-2.6-1.2s-1.1.1-1.6.4c-.5.2-.9.6-1.2,1-.4.4-.6.9-.8,1.4s-.3,1.1-.4,1.7h7.7,0Z"/>
      <path class="cls-5" d="M145.1,497.6h5.4v1.4h-5.4v7.1c0,.8,0,1.4.2,1.9.1.5.3.9.6,1.1s.5.4.9.5c.4,0,.7.1,1.1.1.7,0,1.3,0,1.7-.2s.8-.3,1-.5l.4,1.4c-.2.2-.7.3-1.3.5s-1.3.3-2,.3-1.5-.1-2.1-.3-1-.5-1.4-1c-.3-.4-.6-1-.7-1.6s-.2-1.4-.2-2.3v-12.4l1.7-.3v4.3h0Z"/>
      <path class="cls-5" d="M162.2,497.6c.2.9.4,1.8.6,2.8.2,1,.5,2,.8,3,.3,1,.6,2,1,3,.3,1,.7,1.9,1,2.8.3-.7.6-1.5.9-2.4s.7-1.9,1-3,.6-2.1.9-3.2c.3-1.1.5-2.1.7-3h1.7c-.6,2.6-1.3,5-2.1,7.2-.7,2.2-1.6,4.2-2.4,6.2h-1.6c-.3-.6-.5-1.3-.8-2-.3-.8-.6-1.6-.9-2.4s-.6-1.8-.9-2.7-.6-1.9-.8-2.9c-.3,1-.5,2-.8,2.9-.3,1-.6,1.9-.9,2.7s-.6,1.7-.9,2.4-.6,1.4-.8,2h-1.6c-.9-2-1.7-4-2.4-6.2s-1.4-4.6-2-7.2h1.8c.2.9.4,1.9.7,3,.3,1.1.6,2.1.9,3.2.3,1,.7,2,1,3s.7,1.7.9,2.4c.3-.9.7-1.8,1-2.8s.6-2,.9-3,.6-2,.8-3,.5-1.9.7-2.8h1.5,0Z"/>
      <path class="cls-5" d="M185.2,504.3c0,1.1-.1,2-.5,2.9-.3.9-.7,1.6-1.3,2.2-.6.6-1.2,1.1-1.9,1.4-.8.3-1.6.5-2.5.5s-1.7-.2-2.5-.5-1.4-.8-1.9-1.4c-.6-.6-1-1.3-1.3-2.2-.3-.9-.5-1.8-.5-2.9s.1-2,.5-2.9c.3-.9.7-1.6,1.3-2.2.6-.6,1.2-1.1,1.9-1.4s1.6-.5,2.5-.5,1.7.2,2.5.5c.8.3,1.4.8,1.9,1.4.5.6,1,1.4,1.3,2.2.3.9.5,1.8.5,2.9ZM183.4,504.3c0-1.7-.4-3-1.2-4s-1.8-1.5-3.2-1.5-2.4.5-3.2,1.5-1.2,2.3-1.2,4,.4,3,1.2,4,1.8,1.5,3.2,1.5,2.4-.5,3.2-1.5,1.2-2.3,1.2-4Z"/>
      <path class="cls-5" d="M193.4,497.3c.6,0,1.1,0,1.6.1s.8.2,1,.3l-.3,1.5c-.1,0-.4-.1-.9-.2-.4,0-1-.1-1.7-.1s-1.3,0-1.8.2c-.4.1-.7.2-.9.3v11.8h-1.7v-12.8c.4-.2,1-.4,1.8-.6s1.7-.3,2.8-.3h0Z"/>
      <path class="cls-5" d="M202,503.7c.6.4,1.2.9,1.9,1.5.6.6,1.2,1.2,1.9,1.8s1.2,1.3,1.7,2c.5.7,1,1.4,1.4,2h-2c-.4-.7-.9-1.4-1.4-2s-1.1-1.3-1.7-1.9-1.2-1.1-1.8-1.6c-.6-.5-1.1-.8-1.6-1.1v6.5h-1.7v-19.9l1.7-.3v12.5c.4-.3.8-.7,1.4-1.3.5-.5,1.1-1.1,1.6-1.6.6-.5,1.1-1.1,1.6-1.6s.9-1,1.2-1.3h2.1c-.4.4-.9.9-1.4,1.4s-1.1,1-1.6,1.6-1.1,1.1-1.6,1.6c-.5.5-1.1,1-1.6,1.5h0Z"/>
      <path class="cls-5" d="M86.6,542.2v-18h10.4v1.5h-8.6v6.3h7.7v1.5h-7.7v7.2h9.3v1.5h-11.1Z"/>
      <path class="cls-5" d="M99.8,547.1h-1.7l8.9-25.2h1.7l-8.8,25.2h0Z"/>
      <path class="cls-5" d="M121.4,526.4c.8,2.8,1.7,5.3,2.5,7.6s1.7,4.3,2.5,6.2c.6-2,1.2-4.5,1.8-7.2s1.2-5.7,1.8-8.8h1.7c-.3,1.9-.6,3.6-1,5.2s-.6,3.2-1,4.6-.7,2.9-1.1,4.2-.8,2.7-1.3,4h-1.9c-.4-1-.8-2-1.2-3s-.8-2-1.2-3.1-.8-2.1-1.2-3.3c-.4-1.1-.8-2.4-1.2-3.6-.4,1.3-.8,2.5-1.2,3.7-.4,1.1-.8,2.2-1.2,3.3s-.8,2.1-1.2,3.1c-.4,1-.8,2-1.2,3h-1.9c-.5-1.3-.9-2.6-1.3-4s-.8-2.8-1.1-4.2-.7-3-1-4.6-.6-3.4-.9-5.2h1.8c.3,1.5.5,3,.8,4.5.3,1.5.6,2.9.9,4.2.3,1.4.6,2.7.9,3.9.3,1.2.6,2.4,1,3.4.7-1.9,1.5-4,2.4-6.2s1.7-4.8,2.5-7.6h1.6Z"/>
      <path class="cls-5" d="M142.3,528.8h5.4v1.4h-5.4v7.2c0,.8,0,1.4.2,1.9.1.5.3.8.6,1.1.2.3.5.4.9.5.4,0,.7.1,1.1.1.7,0,1.3,0,1.7-.2.4-.2.8-.3,1-.5l.4,1.4c-.2.2-.7.3-1.3.5-.6.2-1.3.3-2,.3s-1.5-.1-2.1-.3-1-.5-1.4-1c-.3-.4-.6-1-.7-1.7-.1-.7-.2-1.4-.2-2.3v-12.4l1.7-.3v4.3h0Z"/>
      <path class="cls-5" d="M155.4,528.5c.6,0,1.1,0,1.6.1s.8.2,1,.3l-.3,1.5c-.1,0-.4-.1-.9-.2s-1-.1-1.7-.1-1.3,0-1.8.2c-.4,0-.7.2-.9.3v11.8h-1.7v-12.8c.4-.2,1-.4,1.8-.6s1.7-.3,2.8-.3h0Z"/>
      <path class="cls-5" d="M164.6,528.5c.9,0,1.6.1,2.2.4s1.1.6,1.5,1c.4.4.7,1,.8,1.6.2.6.3,1.3.3,2v8.5c-.2,0-.4.1-.8.2s-.7.1-1.1.2c-.4,0-.9.1-1.4.2-.5,0-1.1,0-1.6,0s-1.4,0-2-.2c-.6-.2-1.1-.4-1.6-.7-.4-.3-.8-.8-1-1.3-.2-.5-.4-1.2-.4-1.9s.1-1.3.4-1.9.7-1,1.2-1.3,1.1-.6,1.8-.7c.7-.2,1.4-.2,2.3-.2s.5,0,.8,0c.3,0,.5,0,.8,0s.5,0,.6.1.3,0,.4.1v-.8c0-.5,0-.9-.1-1.4,0-.4-.2-.8-.5-1.2s-.6-.6-1-.9-1-.3-1.7-.3c-1,0-1.7,0-2.2.2-.5.1-.8.2-1.1.3l-.2-1.5c.3-.1.8-.3,1.4-.4s1.4-.2,2.2-.2h0ZM164.8,541c.7,0,1.2,0,1.7,0s.9,0,1.3-.2v-4.7c-.2,0-.5-.2-.9-.3s-1-.1-1.7-.1-.9,0-1.3,0-.9.2-1.2.4-.7.5-.9.8c-.2.3-.4.8-.4,1.4s0,.9.2,1.3c.2.3.4.6.7.8s.7.4,1.1.5c.4,0,.9.1,1.4.1h0Z"/>
      <path class="cls-5" d="M178.7,522.1c.7,0,1.3,0,1.8.2s.8.2.9.3l-.3,1.5c-.2,0-.5-.2-.9-.3s-.9-.1-1.4-.1c-1.2,0-2.1.3-2.6.9s-.8,1.6-.8,2.9v1.4h5.4v1.4h-5.4v12h-1.7v-14.9c0-1.8.4-3.1,1.2-4s2.1-1.3,3.7-1.3h0ZM188.5,522.1c.7,0,1.3,0,1.8.2s.8.2.9.3l-.3,1.5c-.2,0-.5-.2-.9-.3s-.8-.1-1.4-.1c-1.2,0-2.1.3-2.6.9s-.8,1.6-.8,2.9v1.4h5.4v1.4h-5.4v12h-1.7v-14.9c0-1.8.4-3.1,1.2-4,.8-.9,2.1-1.3,3.7-1.3h0ZM195.4,524.7c0,.4-.1.7-.4,1-.2.2-.5.3-.9.3s-.6-.1-.9-.3-.4-.5-.4-1,.1-.7.4-1c.2-.2.5-.3.9-.3s.6.1.9.3.4.5.4,1ZM195,542.2h-1.7v-13.5h1.7v13.5Z"/>
      <path class="cls-5" d="M205.1,542.5c-1,0-2-.2-2.8-.5-.8-.3-1.5-.8-2-1.4s-.9-1.3-1.2-2.2-.4-1.8-.4-2.8.1-2,.4-2.9.7-1.6,1.2-2.2c.5-.6,1.2-1.1,1.9-1.4.8-.3,1.6-.5,2.6-.5s1.4,0,2,.2c.6.1,1.1.3,1.5.5l-.4,1.5c-.4-.2-.7-.3-1.2-.4-.4,0-1-.2-1.7-.2-1.5,0-2.6.5-3.4,1.4s-1.2,2.3-1.2,4.1,0,1.5.3,2.2.5,1.2.9,1.7.9.8,1.5,1.1,1.4.4,2.2.4,1.3,0,1.8-.2c.5-.2.9-.3,1.1-.4l.4,1.5c-.3.2-.8.3-1.5.5-.7.2-1.4.2-2.1.2h0Z"/>
    </g>
    <g>
      <path class="cls-5" d="M316.4,768.1h1.8v18h-1.8v-18Z"/>
      <path class="cls-5" d="M322.7,773.1c.5-.1,1.2-.3,2-.5.9-.2,1.9-.3,3.1-.3s1.9.2,2.6.4,1.2.7,1.6,1.3.7,1.2.9,2c.2.8.3,1.6.3,2.5v7.5h-1.7v-7c0-1,0-1.8-.2-2.4s-.4-1.2-.6-1.6-.7-.7-1.2-.9-1.1-.3-1.9-.3-1.5,0-2.1.1-1,.2-1.1.2v11.8h-1.7v-13h0Z"/>
      <path class="cls-5" d="M340.3,784.9c1,0,1.8-.2,2.4-.5.6-.3,1-.9,1-1.6s0-.7-.2-.9c-.1-.3-.3-.5-.6-.7s-.6-.4-1-.6c-.4-.2-1-.4-1.6-.7-.5-.2-1-.4-1.4-.6-.5-.2-.9-.5-1.2-.8s-.6-.6-.8-1-.3-.9-.3-1.5c0-1.1.4-2,1.2-2.7.8-.7,2-1,3.4-1s1.7,0,2.3.2c.6.2,1,.3,1.3.4l-.4,1.5c-.2,0-.6-.2-1-.4-.5-.2-1.2-.3-2.2-.3s-.7,0-1.1.1-.6.2-.9.4c-.3.2-.5.4-.6.6s-.2.6-.2.9,0,.7.2.9.3.5.6.7.6.4,1,.6c.4.2.8.4,1.3.6.5.2,1,.4,1.5.6.5.2.9.5,1.3.8.4.3.7.7.9,1.1.2.4.3,1,.3,1.6,0,1.2-.5,2.1-1.4,2.8-.9.6-2.2.9-3.7.9s-2.1,0-2.7-.3c-.6-.2-1-.3-1.2-.5l.4-1.5s.2,0,.3.2c.2,0,.4.2.7.3.3,0,.6.2,1,.2s.9,0,1.4,0h0Z"/>
      <path class="cls-5" d="M350.2,772.7h5.4v1.4h-5.4v7.2c0,.8,0,1.4.2,1.9s.3.8.6,1.1c.2.3.5.4.9.5.4,0,.7.1,1.1.1.7,0,1.3,0,1.7-.2.4-.2.8-.3,1-.5l.4,1.4c-.2.2-.7.3-1.3.5-.6.2-1.3.3-2,.3s-1.5-.1-2.1-.3c-.6-.2-1-.5-1.4-1s-.6-1-.7-1.7c-.1-.7-.2-1.4-.2-2.3v-12.4l1.7-.3v4.3h0Z"/>
      <path class="cls-5" d="M362.8,772.3c.9,0,1.6.1,2.2.4s1.1.6,1.5,1c.4.4.7,1,.8,1.6.2.6.3,1.3.3,2v8.5c-.2,0-.4.1-.8.2-.3,0-.7.1-1.1.2-.4,0-.9.1-1.4.2-.5,0-1.1,0-1.6,0s-1.4,0-2-.2-1.1-.4-1.6-.7-.8-.8-1-1.3c-.2-.5-.4-1.2-.4-1.9s.1-1.3.4-1.9.7-1,1.2-1.3c.5-.3,1.1-.6,1.8-.7.7-.2,1.5-.2,2.3-.2s.5,0,.8,0c.3,0,.5,0,.8,0s.5,0,.6.1.3,0,.4.1v-.8c0-.5,0-.9-.1-1.4,0-.4-.2-.8-.5-1.2-.2-.3-.6-.6-1-.9-.4-.2-1-.3-1.7-.3-1,0-1.7,0-2.2.2s-.8.2-1.1.3l-.2-1.5c.3-.1.8-.3,1.4-.4s1.4-.2,2.2-.2h0ZM362.9,784.9c.7,0,1.2,0,1.7,0,.5,0,.9,0,1.3-.2v-4.7c-.2,0-.5-.2-.9-.3s-1-.1-1.7-.1-.9,0-1.3,0-.9.2-1.2.4-.7.5-.9.8c-.2.3-.4.8-.4,1.4s0,.9.2,1.3c.2.3.4.6.7.8.3.2.7.4,1.1.5.4,0,.9.1,1.4.1h0Z"/>
      <path class="cls-5" d="M371.9,773.1c.5-.1,1.2-.3,2-.5.9-.2,1.9-.3,3.1-.3s1.9.2,2.6.4,1.2.7,1.6,1.3.7,1.2.9,2c.2.8.3,1.6.3,2.5v7.5h-1.7v-7c0-1,0-1.8-.2-2.4s-.4-1.2-.6-1.6-.7-.7-1.2-.9-1.1-.3-1.9-.3-1.5,0-2.1.1-1,.2-1.1.2v11.8h-1.7v-13h0Z"/>
      <path class="cls-5" d="M392.3,786.4c-1,0-2-.2-2.8-.5s-1.5-.8-2-1.4-.9-1.3-1.2-2.2-.4-1.8-.4-2.8.1-2,.4-2.9.7-1.6,1.2-2.2c.5-.6,1.2-1.1,2-1.4s1.6-.5,2.6-.5,1.4,0,2,.2,1.1.3,1.5.5l-.4,1.5c-.4-.2-.7-.3-1.2-.4-.4,0-1-.2-1.7-.2-1.5,0-2.6.5-3.4,1.4-.8,1-1.2,2.3-1.2,4.1s0,1.5.3,2.2.5,1.2.9,1.7.9.8,1.5,1.1,1.4.4,2.2.4,1.3,0,1.8-.2c.5-.2.9-.3,1.1-.4l.4,1.5c-.3.2-.8.3-1.5.5s-1.4.2-2.1.2h0Z"/>
      <path class="cls-5" d="M397.9,779.4c0-1.2.2-2.2.5-3.1.3-.9.8-1.6,1.3-2.2s1.2-1,1.9-1.3,1.4-.4,2.2-.4c1.6,0,3,.5,3.9,1.6s1.5,2.7,1.5,5,0,.3,0,.4,0,.3,0,.4h-9.4c0,1.7.5,2.9,1.2,3.8.8.9,2,1.3,3.6,1.3s1.6,0,2.2-.3c.5-.2.9-.3,1.2-.4l.3,1.5c-.2.1-.7.3-1.4.5-.7.2-1.5.3-2.4.3s-2.2-.2-3-.5-1.5-.8-2-1.5c-.5-.6-.9-1.4-1.2-2.2s-.4-1.8-.4-2.8h0ZM407.4,778.3c0-1.4-.4-2.5-1-3.3-.6-.8-1.5-1.2-2.6-1.2s-1.1.1-1.6.4-.9.6-1.2,1-.6.9-.8,1.4-.3,1.1-.4,1.7h7.7,0Z"/>
    </g>
    <g>
      <path class="cls-5" d="M523.3,768.1h1.8v18h-1.8v-18Z"/>
      <path class="cls-5" d="M529.7,773.1c.5-.1,1.2-.3,2-.5.8-.2,1.9-.3,3.1-.3s1.9.2,2.6.4,1.2.7,1.6,1.3c.4.5.7,1.2.9,2s.3,1.6.3,2.5v7.5h-1.7v-7c0-1,0-1.8-.2-2.4s-.3-1.2-.7-1.6c-.3-.4-.7-.7-1.2-.9-.5-.2-1.1-.3-1.9-.3s-1.5,0-2.1.1-1,.2-1.1.2v11.8h-1.7v-13h0Z"/>
      <path class="cls-5" d="M547.2,784.9c1,0,1.8-.2,2.4-.5.6-.3,1-.9,1-1.6s0-.7-.2-.9-.3-.5-.6-.7-.6-.4-1-.6c-.4-.2-1-.4-1.6-.7-.5-.2-1-.4-1.4-.6-.5-.2-.8-.5-1.2-.8-.3-.3-.6-.6-.8-1s-.3-.9-.3-1.5c0-1.1.4-2,1.2-2.7.8-.7,2-1,3.4-1s1.7,0,2.3.2c.6.2,1,.3,1.3.4l-.4,1.5c-.2,0-.6-.2-1-.4-.5-.2-1.2-.3-2.2-.3s-.7,0-1.1.1-.6.2-.9.4-.5.4-.6.6c-.2.2-.2.6-.2.9s0,.7.2.9.3.5.6.7c.3.2.6.4,1,.6s.8.4,1.3.6c.5.2,1,.4,1.5.6s.9.5,1.3.8c.4.3.7.7.9,1.1.2.4.3,1,.3,1.6,0,1.2-.5,2.1-1.4,2.8-.9.6-2.2.9-3.7.9s-2.1,0-2.7-.3-1-.3-1.2-.5l.4-1.5s.2,0,.3.2c.2,0,.4.2.7.3.3,0,.7.2,1,.2.4,0,.9,0,1.4,0h0Z"/>
      <path class="cls-5" d="M557.2,772.7h5.4v1.4h-5.4v7.2c0,.8,0,1.4.2,1.9.1.5.3.8.6,1.1.2.3.5.4.9.5.3,0,.7.1,1.1.1.7,0,1.3,0,1.7-.2.4-.2.8-.3,1-.5l.4,1.4c-.2.2-.7.3-1.3.5-.6.2-1.3.3-2,.3s-1.5-.1-2.1-.3-1-.5-1.3-1-.6-1-.7-1.7c-.1-.7-.2-1.4-.2-2.3v-12.4l1.7-.3v4.3h0Z"/>
      <path class="cls-5" d="M569.8,772.3c.9,0,1.6.1,2.2.4s1.1.6,1.5,1c.4.4.7,1,.8,1.6.2.6.3,1.3.3,2v8.5c-.2,0-.4.1-.8.2s-.7.1-1.1.2c-.4,0-.9.1-1.4.2-.5,0-1.1,0-1.6,0s-1.4,0-2-.2c-.6-.2-1.1-.4-1.6-.7-.4-.3-.8-.8-1-1.3-.2-.5-.4-1.2-.4-1.9s.1-1.3.4-1.9.7-1,1.2-1.3c.5-.3,1.1-.6,1.8-.7.7-.2,1.5-.2,2.3-.2s.5,0,.8,0c.3,0,.5,0,.8,0s.5,0,.7.1c.2,0,.3,0,.4.1v-.8c0-.5,0-.9,0-1.4,0-.4-.2-.8-.5-1.2-.2-.3-.6-.6-1-.9-.4-.2-1-.3-1.7-.3-1,0-1.7,0-2.2.2-.5.1-.8.2-1.1.3l-.2-1.5c.3-.1.8-.3,1.4-.4s1.4-.2,2.2-.2h0ZM569.9,784.9c.7,0,1.2,0,1.7,0s.9,0,1.3-.2v-4.7c-.2,0-.5-.2-.9-.3s-1-.1-1.7-.1-.8,0-1.3,0-.9.2-1.2.4-.7.5-.9.8c-.2.3-.4.8-.4,1.4s0,.9.2,1.3c.2.3.4.6.7.8s.7.4,1.1.5c.4,0,.9.1,1.4.1h0Z"/>
      <path class="cls-5" d="M578.9,773.1c.5-.1,1.2-.3,2-.5.8-.2,1.9-.3,3.1-.3s1.9.2,2.6.4,1.2.7,1.6,1.3c.4.5.7,1.2.9,2s.3,1.6.3,2.5v7.5h-1.7v-7c0-1,0-1.8-.2-2.4s-.3-1.2-.7-1.6c-.3-.4-.7-.7-1.2-.9-.5-.2-1.1-.3-1.9-.3s-1.5,0-2.1.1-1,.2-1.1.2v11.8h-1.7v-13h0Z"/>
      <path class="cls-5" d="M599.3,786.4c-1,0-2-.2-2.8-.5-.8-.3-1.5-.8-2-1.4-.5-.6-.9-1.3-1.2-2.2s-.4-1.8-.4-2.8.1-2,.4-2.9.7-1.6,1.2-2.2c.5-.6,1.2-1.1,2-1.4.8-.3,1.6-.5,2.6-.5s1.4,0,2,.2,1.1.3,1.5.5l-.4,1.5c-.3-.2-.7-.3-1.2-.4-.4,0-1-.2-1.7-.2-1.5,0-2.6.5-3.4,1.4s-1.2,2.3-1.2,4.1,0,1.5.3,2.2.5,1.2.8,1.7c.4.5.9.8,1.5,1.1s1.4.4,2.2.4,1.3,0,1.8-.2c.5-.2.8-.3,1.1-.4l.4,1.5c-.3.2-.8.3-1.5.5s-1.4.2-2.1.2h0Z"/>
      <path class="cls-5" d="M604.9,779.4c0-1.2.2-2.2.5-3.1s.8-1.6,1.3-2.2,1.2-1,1.9-1.3c.7-.3,1.4-.4,2.2-.4,1.7,0,3,.5,3.9,1.6,1,1.1,1.5,2.7,1.5,5s0,.3,0,.4,0,.3,0,.4h-9.4c0,1.7.5,2.9,1.2,3.8.8.9,2,1.3,3.6,1.3s1.7,0,2.2-.3c.5-.2.9-.3,1.2-.4l.3,1.5c-.2.1-.7.3-1.4.5s-1.5.3-2.3.3-2.2-.2-3-.5c-.8-.3-1.5-.8-2-1.5-.5-.6-.9-1.4-1.2-2.2-.2-.9-.4-1.8-.4-2.8h0ZM614.4,778.3c0-1.4-.4-2.5-1-3.3s-1.5-1.2-2.7-1.2-1.2.1-1.6.4-.9.6-1.2,1-.6.9-.8,1.4-.3,1.1-.3,1.7h7.7Z"/>
    </g>
    <g>
      <path class="cls-5" d="M1557.1,315.9c-1.2,0-2.2-.2-3.2-.6-1-.4-1.9-1-2.6-1.8-.7-.8-1.3-1.8-1.7-3s-.6-2.5-.6-4,.2-2.9.7-4c.5-1.2,1.1-2.1,1.8-3,.8-.8,1.7-1.4,2.7-1.8s2.1-.6,3.2-.6,1.3,0,1.8.1c.6,0,1,.2,1.5.3s.8.3,1.1.4c.3.1.5.2.7.4l-.6,1.5c-.4-.3-1-.5-1.7-.8s-1.5-.4-2.5-.4-2.1.2-2.9.6-1.6.9-2.1,1.6c-.6.7-1,1.5-1.3,2.5s-.4,2-.4,3.2.1,2.3.4,3.2.7,1.8,1.3,2.5,1.2,1.2,2,1.6c.8.4,1.7.5,2.8.5s2.1-.1,2.9-.3,1.4-.4,1.8-.7l.5,1.5c-.1,0-.3.2-.6.3s-.7.2-1.1.4-1,.2-1.6.3c-.6,0-1.2.1-2,.1h0Z"/>
      <path class="cls-5" d="M1568.7,315.7c-.6,0-1.1,0-1.5-.2-.4-.1-.8-.3-1.1-.6s-.5-.6-.7-1-.2-1-.2-1.6v-16.6l1.7-.3v16.9c0,.4,0,.8.1,1s.2.5.3.6c.2.1.4.3.6.3.2,0,.6.1.9.2l-.2,1.4h0Z"/>
      <path class="cls-5" d="M1582.3,315c-.5.1-1.2.3-2,.5-.8.2-1.9.3-3.1.3s-1.8-.1-2.5-.4c-.7-.3-1.2-.7-1.6-1.2s-.7-1.2-.9-2c-.2-.8-.3-1.6-.3-2.5v-7.5h1.7v7c0,1,0,1.8.2,2.4s.4,1.2.7,1.6c.3.4.7.7,1.2.9.5.2,1.1.3,1.8.3s1.5,0,2.1-.1,1-.2,1.1-.2v-11.8h1.7v13h0Z"/>
      <path class="cls-5" d="M1589.5,314.3c1,0,1.8-.2,2.4-.5.6-.3.9-.9.9-1.6s0-.7-.2-.9-.3-.5-.6-.7c-.3-.2-.6-.4-1-.6s-.9-.4-1.6-.7c-.5-.2-1-.4-1.4-.6-.4-.2-.8-.5-1.2-.8-.3-.3-.6-.6-.8-1s-.3-.9-.3-1.5c0-1.1.4-2,1.2-2.6.8-.7,2-1,3.4-1s1.7,0,2.3.2c.6.2,1,.3,1.3.4l-.4,1.5c-.2-.1-.6-.2-1.1-.4-.5-.2-1.2-.3-2.2-.3s-.7,0-1.1.1-.6.2-.9.4c-.3.2-.5.4-.6.6s-.2.6-.2.9,0,.7.2.9.3.5.6.7.6.4,1,.6c.4.2.8.4,1.3.6.5.2,1,.4,1.5.6.5.2.9.5,1.3.8s.7.7.9,1.1c.2.4.3,1,.3,1.6,0,1.2-.5,2.1-1.4,2.8-.9.6-2.2.9-3.7.9s-2.1-.1-2.7-.3c-.6-.2-1-.4-1.2-.5l.4-1.5c0,0,.2,0,.3.2.2,0,.4.2.7.3.3.1.7.2,1.1.2.4,0,.9.1,1.4.1h0Z"/>
      <path class="cls-5" d="M1599.4,302.1h5.4v1.4h-5.4v7.1c0,.8,0,1.4.2,1.9s.3.8.6,1.1c.2.3.5.4.9.5.3,0,.7.1,1.1.1.7,0,1.3,0,1.7-.2.4-.2.8-.3,1-.5l.4,1.4c-.2.2-.7.3-1.3.5-.6.2-1.3.3-2,.3s-1.5-.1-2.1-.3-1-.5-1.3-1-.6-1-.7-1.6-.2-1.4-.2-2.3v-12.4l1.7-.3v4.3h0Z"/>
      <path class="cls-5" d="M1607.1,308.8c0-1.2.2-2.2.5-3.1.3-.9.8-1.6,1.3-2.2.6-.6,1.2-1,1.9-1.3.7-.3,1.4-.4,2.2-.4,1.7,0,3,.5,3.9,1.6s1.5,2.7,1.5,5,0,.3,0,.4c0,.1,0,.3,0,.4h-9.4c0,1.6.5,2.9,1.2,3.8.8.9,2,1.3,3.6,1.3s1.7,0,2.2-.3c.5-.2.9-.3,1.2-.4l.3,1.5c-.2.1-.7.3-1.4.5s-1.4.3-2.3.3-2.2-.2-3-.5c-.8-.4-1.5-.8-2.1-1.5-.5-.6-.9-1.4-1.2-2.2-.2-.9-.4-1.8-.4-2.8h0ZM1616.7,307.7c0-1.4-.4-2.5-1-3.3s-1.5-1.2-2.7-1.2-1.2.1-1.6.4c-.5.2-.9.6-1.2,1-.4.4-.6.9-.8,1.4s-.3,1.1-.3,1.7h7.7,0Z"/>
      <path class="cls-5" d="M1626.8,301.8c.6,0,1.1,0,1.6.1s.8.2,1,.3l-.3,1.5c-.1,0-.4-.1-.8-.2s-1-.1-1.7-.1-1.3,0-1.8.2c-.4.1-.7.2-.9.3v11.8h-1.7v-12.8c.4-.2,1-.4,1.8-.6.8-.2,1.7-.3,2.8-.3h0Z"/>
      <path class="cls-5" d="M1637.8,302.5c.5-.1,1.2-.3,2-.5.8-.2,1.8-.3,3.1-.3s2.9.5,3.7,1.5c0,0,.2-.2.5-.4.2-.2.6-.3.9-.5.4-.2.8-.3,1.3-.4s1.1-.2,1.7-.2c1,0,1.8.1,2.5.5.6.3,1.1.7,1.5,1.3.3.5.6,1.2.7,2,.1.8.2,1.6.2,2.5v7.5h-1.7v-7c0-.9,0-1.6-.1-2.3s-.2-1.2-.5-1.6c-.2-.4-.6-.8-1-1-.4-.2-1-.3-1.7-.3s-1,0-1.4.1c-.4.1-.8.2-1.1.4-.3.1-.6.3-.8.4s-.3.2-.4.3c.2.5.3,1,.3,1.5s.1,1.2.1,1.8v7.6h-1.7v-7c0-.9,0-1.6-.1-2.3s-.2-1.2-.5-1.6-.6-.8-1-1-1-.3-1.8-.3-1.5,0-2.1.1-.9.2-1.1.2v11.8h-1.7v-13h0Z"/>
      <path class="cls-5" d="M1659.5,308.8c0-1.2.2-2.2.5-3.1.3-.9.8-1.6,1.3-2.2.6-.6,1.2-1,1.9-1.3.7-.3,1.4-.4,2.2-.4,1.7,0,3,.5,3.9,1.6s1.5,2.7,1.5,5,0,.3,0,.4c0,.1,0,.3,0,.4h-9.4c0,1.6.5,2.9,1.2,3.8.8.9,2,1.3,3.6,1.3s1.7,0,2.2-.3c.5-.2.9-.3,1.2-.4l.3,1.5c-.2.1-.7.3-1.4.5s-1.4.3-2.3.3-2.2-.2-3-.5c-.8-.4-1.5-.8-2.1-1.5-.5-.6-.9-1.4-1.2-2.2-.2-.9-.4-1.8-.4-2.8h0ZM1669,307.7c0-1.4-.4-2.5-1-3.3s-1.5-1.2-2.7-1.2-1.2.1-1.6.4c-.5.2-.9.6-1.2,1-.4.4-.6.9-.8,1.4s-.3,1.1-.3,1.7h7.7,0Z"/>
      <path class="cls-5" d="M1674.6,302.5c.5-.1,1.2-.3,2-.5.8-.2,1.8-.3,3.1-.3s2.9.5,3.7,1.5c0,0,.2-.2.5-.4.2-.2.6-.3.9-.5.4-.2.8-.3,1.3-.4s1.1-.2,1.7-.2c1,0,1.8.1,2.5.5.6.3,1.1.7,1.5,1.3.3.5.6,1.2.7,2,.1.8.2,1.6.2,2.5v7.5h-1.7v-7c0-.9,0-1.6-.1-2.3s-.2-1.2-.5-1.6c-.2-.4-.6-.8-1-1-.4-.2-1-.3-1.7-.3s-1,0-1.4.1c-.4.1-.8.2-1.1.4-.3.1-.6.3-.8.4s-.3.2-.4.3c.2.5.3,1,.3,1.5s.1,1.2.1,1.8v7.6h-1.7v-7c0-.9,0-1.6-.1-2.3s-.2-1.2-.5-1.6-.6-.8-1-1-1-.3-1.8-.3-1.5,0-2.1.1-.9.2-1.1.2v11.8h-1.7v-13h0Z"/>
      <path class="cls-5" d="M1698.7,302.9c.3-.2.8-.5,1.4-.7s1.4-.4,2.3-.4,1.8.2,2.6.5c.8.4,1.4.8,1.9,1.5s.9,1.4,1.2,2.2c.3.9.4,1.8.4,2.8s-.2,2.1-.5,2.9-.8,1.6-1.3,2.2-1.3,1.1-2.1,1.4-1.7.5-2.7.5-2.2,0-3-.2-1.4-.3-1.9-.5v-19.5l1.7-.3v7.5h0ZM1698.7,313.9c.3,0,.7.2,1.2.2s1.2.1,2,.1c1.5,0,2.6-.5,3.5-1.4s1.3-2.3,1.3-4.1,0-1.5-.2-2.1c-.2-.7-.4-1.2-.8-1.7-.3-.5-.8-.9-1.4-1.2s-1.3-.4-2.1-.4-.8,0-1.1.1-.7.2-1,.3-.6.2-.8.4c-.2.1-.4.3-.6.4v9.4h0Z"/>
      <path class="cls-5" d="M1711.4,308.8c0-1.2.2-2.2.5-3.1.3-.9.8-1.6,1.3-2.2.6-.6,1.2-1,1.9-1.3.7-.3,1.4-.4,2.2-.4,1.7,0,3,.5,3.9,1.6s1.5,2.7,1.5,5,0,.3,0,.4c0,.1,0,.3,0,.4h-9.4c0,1.6.5,2.9,1.2,3.8.8.9,2,1.3,3.6,1.3s1.7,0,2.2-.3c.5-.2.9-.3,1.2-.4l.3,1.5c-.2.1-.7.3-1.4.5s-1.4.3-2.3.3-2.2-.2-3-.5c-.8-.4-1.5-.8-2.1-1.5-.5-.6-.9-1.4-1.2-2.2-.2-.9-.4-1.8-.4-2.8h0ZM1720.9,307.7c0-1.4-.4-2.5-1-3.3s-1.5-1.2-2.7-1.2-1.2.1-1.6.4c-.5.2-.9.6-1.2,1-.4.4-.6.9-.8,1.4s-.3,1.1-.3,1.7h7.7,0Z"/>
      <path class="cls-5" d="M1731,301.8c.6,0,1.1,0,1.6.1s.8.2,1,.3l-.3,1.5c-.1,0-.4-.1-.8-.2s-1-.1-1.7-.1-1.3,0-1.8.2c-.4.1-.7.2-.9.3v11.8h-1.7v-12.8c.4-.2,1-.4,1.8-.6.8-.2,1.7-.3,2.8-.3h0Z"/>
      <path class="cls-5" d="M1751.7,302c0,.7-.1,1.3-.4,1.9s-.6,1.2-1,1.7-.9,1.1-1.4,1.6-1.1,1-1.6,1.6c-.4.4-.9.9-1.3,1.3s-.8.9-1.1,1.3c-.3.4-.6.9-.8,1.3-.2.4-.3.9-.3,1.3h0s8.5,0,8.5,0v1.5h-10.4s0-.1,0-.2c0,0,0-.2,0-.4,0-.8.2-1.6.4-2.3.3-.7.7-1.4,1.1-2s1-1.2,1.5-1.7c.6-.5,1.1-1,1.6-1.5.4-.4.8-.8,1.2-1.2.4-.4.7-.8,1-1.2s.5-.9.7-1.3c.2-.5.3-1,.3-1.5,0-1.2-.3-2.1-1-2.6s-1.5-.8-2.5-.8-1.1,0-1.5.2-.8.3-1.1.5c-.3.2-.6.4-.8.6s-.4.3-.5.4l-.9-1.2c0-.1.3-.3.6-.5s.6-.5,1-.7c.4-.2.9-.4,1.4-.6.5-.2,1.1-.2,1.8-.2,1.8,0,3.1.4,3.9,1.3.9.9,1.3,2,1.3,3.6h0Z"/>
    </g>
    <g>
      <path class="cls-5" d="M1374.6,768.1h1.8v18h-1.8v-18Z"/>
      <path class="cls-5" d="M1381,773.1c.5-.1,1.2-.3,2-.5.8-.2,1.9-.3,3.1-.3s1.9.2,2.6.4c.7.3,1.2.7,1.6,1.3s.7,1.2.9,2,.3,1.6.3,2.5v7.5h-1.7v-7c0-1,0-1.8-.2-2.4s-.3-1.2-.7-1.6c-.3-.4-.7-.7-1.2-.9s-1.1-.3-1.9-.3-1.5,0-2.1.1-1,.2-1.1.2v11.8h-1.7v-13h0Z"/>
      <path class="cls-5" d="M1398.5,784.9c1,0,1.8-.2,2.4-.5.6-.3.9-.9.9-1.6s0-.7-.2-.9-.3-.5-.6-.7-.6-.4-1-.6c-.4-.2-.9-.4-1.6-.7-.5-.2-1-.4-1.4-.6-.4-.2-.8-.5-1.2-.8-.3-.3-.6-.6-.8-1s-.3-.9-.3-1.5c0-1.1.4-2,1.2-2.7.8-.7,2-1,3.4-1s1.7,0,2.3.2c.6.2,1,.3,1.3.4l-.4,1.5c-.2,0-.6-.2-1.1-.4-.5-.2-1.2-.3-2.2-.3s-.7,0-1.1.1-.6.2-.9.4-.5.4-.6.6-.2.6-.2.9,0,.7.2.9.3.5.6.7.6.4,1,.6.8.4,1.3.6c.5.2,1,.4,1.5.6.5.2.9.5,1.3.8.4.3.7.7.9,1.1.2.4.3,1,.3,1.6,0,1.2-.5,2.1-1.4,2.8-.9.6-2.2.9-3.7.9s-2.1,0-2.7-.3-1-.3-1.2-.5l.4-1.5c0,0,.2,0,.3.2.2,0,.4.2.7.3.3,0,.7.2,1.1.2s.9,0,1.4,0h0Z"/>
      <path class="cls-5" d="M1408.5,772.7h5.4v1.4h-5.4v7.2c0,.8,0,1.4.2,1.9s.3.8.6,1.1c.2.3.5.4.9.5.3,0,.7.1,1.1.1.7,0,1.3,0,1.7-.2.4-.2.8-.3,1-.5l.4,1.4c-.2.2-.7.3-1.3.5-.6.2-1.3.3-2,.3s-1.5-.1-2.1-.3-1-.5-1.3-1-.6-1-.7-1.7c-.1-.7-.2-1.4-.2-2.3v-12.4l1.7-.3v4.3h0Z"/>
      <path class="cls-5" d="M1421.1,772.3c.9,0,1.6.1,2.2.4s1.1.6,1.5,1,.7,1,.8,1.6c.2.6.3,1.3.3,2v8.5c-.2,0-.4.1-.8.2s-.7.1-1.1.2c-.4,0-.9.1-1.4.2-.5,0-1.1,0-1.6,0s-1.4,0-2-.2c-.6-.2-1.1-.4-1.6-.7s-.8-.8-1-1.3c-.2-.5-.4-1.2-.4-1.9s.1-1.3.4-1.9.7-1,1.2-1.3c.5-.3,1.1-.6,1.8-.7.7-.2,1.4-.2,2.3-.2s.5,0,.8,0c.3,0,.5,0,.8,0s.5,0,.7.1.3,0,.4.1v-.8c0-.5,0-.9,0-1.4,0-.4-.2-.8-.5-1.2-.2-.3-.6-.6-1-.9-.4-.2-1-.3-1.7-.3s-1.7,0-2.2.2c-.5.1-.8.2-1.1.3l-.2-1.5c.3-.1.8-.3,1.4-.4s1.4-.2,2.2-.2h0ZM1421.2,784.9c.7,0,1.2,0,1.7,0s.9,0,1.3-.2v-4.7c-.2,0-.5-.2-.9-.3s-1-.1-1.7-.1-.8,0-1.3,0-.9.2-1.2.4-.7.5-.9.8c-.2.3-.4.8-.4,1.4s0,.9.2,1.3c.2.3.4.6.7.8.3.2.7.4,1.1.5.4,0,.9.1,1.4.1h0Z"/>
      <path class="cls-5" d="M1430.2,773.1c.5-.1,1.2-.3,2-.5.8-.2,1.9-.3,3.1-.3s1.9.2,2.6.4c.7.3,1.2.7,1.6,1.3s.7,1.2.9,2,.3,1.6.3,2.5v7.5h-1.7v-7c0-1,0-1.8-.2-2.4s-.3-1.2-.7-1.6c-.3-.4-.7-.7-1.2-.9s-1.1-.3-1.9-.3-1.5,0-2.1.1-1,.2-1.1.2v11.8h-1.7v-13h0Z"/>
      <path class="cls-5" d="M1450.6,786.4c-1,0-2-.2-2.8-.5s-1.5-.8-2-1.4-.9-1.3-1.2-2.2-.4-1.8-.4-2.8.1-2,.4-2.9.7-1.6,1.2-2.2c.5-.6,1.2-1.1,1.9-1.4.8-.3,1.6-.5,2.6-.5s1.4,0,2,.2,1.1.3,1.5.5l-.4,1.5c-.3-.2-.7-.3-1.2-.4-.4,0-1-.2-1.7-.2-1.5,0-2.6.5-3.4,1.4s-1.2,2.3-1.2,4.1,0,1.5.3,2.2.5,1.2.8,1.7.9.8,1.5,1.1,1.4.4,2.2.4,1.3,0,1.8-.2c.5-.2.8-.3,1.1-.4l.4,1.5c-.3.2-.8.3-1.5.5-.7.2-1.4.2-2.1.2h0Z"/>
      <path class="cls-5" d="M1456.2,779.4c0-1.2.2-2.2.5-3.1.3-.9.8-1.6,1.3-2.2.6-.6,1.2-1,1.9-1.3.7-.3,1.4-.4,2.2-.4,1.7,0,3,.5,3.9,1.6s1.5,2.7,1.5,5,0,.3,0,.4c0,.1,0,.3,0,.4h-9.4c0,1.7.5,2.9,1.2,3.8.8.9,2,1.3,3.6,1.3s1.7,0,2.2-.3c.5-.2.9-.3,1.2-.4l.3,1.5c-.2.1-.7.3-1.4.5s-1.4.3-2.3.3-2.2-.2-3-.5c-.8-.3-1.5-.8-2.1-1.5-.5-.6-.9-1.4-1.2-2.2-.2-.9-.4-1.8-.4-2.8h0ZM1465.7,778.3c0-1.4-.4-2.5-1-3.3s-1.5-1.2-2.7-1.2-1.2.1-1.6.4c-.5.2-.9.6-1.2,1s-.6.9-.8,1.4-.3,1.1-.3,1.7h7.7,0Z"/>
    </g>
    <g>
      <path class="cls-5" d="M1581.6,768.1h1.8v18h-1.8v-18Z"/>
      <path class="cls-5" d="M1587.9,773.1c.5-.1,1.2-.3,2-.5.8-.2,1.9-.3,3.1-.3s1.9.2,2.6.4c.7.3,1.2.7,1.6,1.3s.7,1.2.9,2,.3,1.6.3,2.5v7.5h-1.7v-7c0-1,0-1.8-.2-2.4s-.3-1.2-.7-1.6c-.3-.4-.7-.7-1.2-.9s-1.1-.3-1.9-.3-1.5,0-2.1.1-1,.2-1.1.2v11.8h-1.7v-13h0Z"/>
      <path class="cls-5" d="M1605.5,784.9c1,0,1.8-.2,2.4-.5.6-.3.9-.9.9-1.6s0-.7-.2-.9-.3-.5-.6-.7-.6-.4-1-.6c-.4-.2-.9-.4-1.6-.7-.5-.2-1-.4-1.4-.6-.4-.2-.8-.5-1.2-.8-.3-.3-.6-.6-.8-1s-.3-.9-.3-1.5c0-1.1.4-2,1.2-2.7.8-.7,2-1,3.4-1s1.7,0,2.3.2c.6.2,1,.3,1.3.4l-.4,1.5c-.2,0-.6-.2-1.1-.4-.5-.2-1.2-.3-2.2-.3s-.7,0-1.1.1-.6.2-.9.4-.5.4-.6.6-.2.6-.2.9,0,.7.2.9.3.5.6.7.6.4,1,.6.8.4,1.3.6c.5.2,1,.4,1.5.6.5.2.9.5,1.3.8.4.3.7.7.9,1.1.2.4.3,1,.3,1.6,0,1.2-.5,2.1-1.4,2.8-.9.6-2.2.9-3.7.9s-2.1,0-2.7-.3-1-.3-1.2-.5l.4-1.5c0,0,.2,0,.3.2.2,0,.4.2.7.3.3,0,.7.2,1.1.2s.9,0,1.4,0h0Z"/>
      <path class="cls-5" d="M1615.4,772.7h5.4v1.4h-5.4v7.2c0,.8,0,1.4.2,1.9s.3.8.6,1.1c.2.3.5.4.9.5.3,0,.7.1,1.1.1.7,0,1.3,0,1.7-.2.4-.2.8-.3,1-.5l.4,1.4c-.2.2-.7.3-1.3.5-.6.2-1.3.3-2,.3s-1.5-.1-2.1-.3-1-.5-1.3-1-.6-1-.7-1.7c-.1-.7-.2-1.4-.2-2.3v-12.4l1.7-.3v4.3h0Z"/>
      <path class="cls-5" d="M1628,772.3c.9,0,1.6.1,2.2.4s1.1.6,1.5,1,.7,1,.8,1.6c.2.6.3,1.3.3,2v8.5c-.2,0-.4.1-.8.2s-.7.1-1.1.2c-.4,0-.9.1-1.4.2-.5,0-1.1,0-1.6,0s-1.4,0-2-.2c-.6-.2-1.1-.4-1.6-.7s-.8-.8-1-1.3c-.2-.5-.4-1.2-.4-1.9s.1-1.3.4-1.9.7-1,1.2-1.3c.5-.3,1.1-.6,1.8-.7.7-.2,1.4-.2,2.3-.2s.5,0,.8,0c.3,0,.5,0,.8,0s.5,0,.7.1.3,0,.4.1v-.8c0-.5,0-.9,0-1.4,0-.4-.2-.8-.5-1.2-.2-.3-.6-.6-1-.9-.4-.2-1-.3-1.7-.3s-1.7,0-2.2.2c-.5.1-.8.2-1.1.3l-.2-1.5c.3-.1.8-.3,1.4-.4s1.4-.2,2.2-.2h0ZM1628.2,784.9c.7,0,1.2,0,1.7,0s.9,0,1.3-.2v-4.7c-.2,0-.5-.2-.9-.3s-1-.1-1.7-.1-.8,0-1.3,0-.9.2-1.2.4-.7.5-.9.8c-.2.3-.4.8-.4,1.4s0,.9.2,1.3c.2.3.4.6.7.8.3.2.7.4,1.1.5.4,0,.9.1,1.4.1h0Z"/>
      <path class="cls-5" d="M1637.2,773.1c.5-.1,1.2-.3,2-.5.8-.2,1.9-.3,3.1-.3s1.9.2,2.6.4c.7.3,1.2.7,1.6,1.3s.7,1.2.9,2,.3,1.6.3,2.5v7.5h-1.7v-7c0-1,0-1.8-.2-2.4s-.3-1.2-.7-1.6c-.3-.4-.7-.7-1.2-.9s-1.1-.3-1.9-.3-1.5,0-2.1.1-1,.2-1.1.2v11.8h-1.7v-13h0Z"/>
      <path class="cls-5" d="M1657.5,786.4c-1,0-2-.2-2.8-.5s-1.5-.8-2-1.4-.9-1.3-1.2-2.2-.4-1.8-.4-2.8.1-2,.4-2.9.7-1.6,1.2-2.2c.5-.6,1.2-1.1,1.9-1.4.8-.3,1.6-.5,2.6-.5s1.4,0,2,.2,1.1.3,1.5.5l-.4,1.5c-.3-.2-.7-.3-1.2-.4-.4,0-1-.2-1.7-.2-1.5,0-2.6.5-3.4,1.4s-1.2,2.3-1.2,4.1,0,1.5.3,2.2.5,1.2.8,1.7.9.8,1.5,1.1,1.4.4,2.2.4,1.3,0,1.8-.2c.5-.2.8-.3,1.1-.4l.4,1.5c-.3.2-.8.3-1.5.5-.7.2-1.4.2-2.1.2h0Z"/>
      <path class="cls-5" d="M1663.1,779.4c0-1.2.2-2.2.5-3.1.3-.9.8-1.6,1.3-2.2.6-.6,1.2-1,1.9-1.3.7-.3,1.4-.4,2.2-.4,1.7,0,3,.5,3.9,1.6s1.5,2.7,1.5,5,0,.3,0,.4c0,.1,0,.3,0,.4h-9.4c0,1.7.5,2.9,1.2,3.8.8.9,2,1.3,3.6,1.3s1.7,0,2.2-.3c.5-.2.9-.3,1.2-.4l.3,1.5c-.2.1-.7.3-1.4.5s-1.4.3-2.3.3-2.2-.2-3-.5c-.8-.3-1.5-.8-2.1-1.5-.5-.6-.9-1.4-1.2-2.2-.2-.9-.4-1.8-.4-2.8h0ZM1672.7,778.3c0-1.4-.4-2.5-1-3.3s-1.5-1.2-2.7-1.2-1.2.1-1.6.4c-.5.2-.9.6-1.2,1s-.6.9-.8,1.4-.3,1.1-.3,1.7h7.7,0Z"/>
    </g>
    <g>
      <path class="cls-8" d="M543.9,288.2c0-1.2.2-2.2.5-3.1.3-.9.8-1.6,1.3-2.2s1.2-1,1.9-1.3,1.4-.4,2.2-.4c1.7,0,3,.5,3.9,1.6s1.5,2.7,1.5,5,0,.3,0,.4c0,.1,0,.3,0,.4h-9.4c0,1.6.5,2.9,1.2,3.8.8.9,2,1.3,3.6,1.3s1.7,0,2.2-.3c.5-.2.9-.3,1.2-.4l.3,1.5c-.2.1-.7.3-1.4.5s-1.5.3-2.3.3-2.2-.2-3-.5-1.5-.8-2-1.5c-.5-.6-.9-1.4-1.2-2.2s-.4-1.8-.4-2.8h0ZM553.4,287.1c0-1.4-.4-2.5-1-3.3-.6-.8-1.5-1.2-2.7-1.2s-1.2.1-1.6.4-.9.6-1.2,1-.6.9-.8,1.4-.3,1.1-.3,1.7h7.7Z"/>
      <path class="cls-8" d="M560.5,281.5h5.4v1.4h-5.4v7.1c0,.8,0,1.4.2,1.9.1.5.3.9.6,1.1.2.3.5.4.9.5.3,0,.7.1,1.1.1.7,0,1.3,0,1.7-.2.4-.2.8-.3,1-.5l.4,1.4c-.2.2-.7.3-1.3.5-.6.2-1.3.3-2,.3s-1.5-.1-2.1-.3-1-.5-1.3-1c-.3-.4-.6-1-.7-1.6-.1-.7-.2-1.4-.2-2.3v-12.4l1.7-.3v4.3h0Z"/>
      <path class="cls-8" d="M569,294.9v-19.9l1.7-.3v7.1c.5-.2,1.1-.4,1.7-.5.6-.1,1.1-.2,1.7-.2,1,0,1.9.1,2.6.4.7.3,1.2.7,1.7,1.3.4.5.7,1.2.9,2,.2.8.2,1.6.2,2.5v7.5h-1.7v-7c0-1,0-1.8-.2-2.4s-.3-1.2-.7-1.6-.7-.7-1.2-.9-1.1-.3-1.9-.3-.6,0-1,0-.7.1-1,.2c-.3,0-.6.1-.8.2s-.4.1-.5.2v11.6h-1.7,0Z"/>
      <path class="cls-8" d="M583.1,285.9c0-3,.5-5.4,1.5-7,1-1.6,2.4-2.4,4.3-2.4s3.3.8,4.3,2.4c1,1.6,1.5,4,1.5,7s-.5,5.4-1.5,7c-1,1.6-2.4,2.4-4.3,2.4s-3.3-.8-4.3-2.4c-1-1.6-1.5-3.9-1.5-7h0ZM592.8,285.9c0-1,0-2-.2-3s-.3-1.8-.7-2.5-.7-1.3-1.2-1.7-1.1-.6-1.9-.6-1.4.2-1.9.6-.9,1-1.2,1.7c-.3.7-.5,1.6-.7,2.5s-.2,1.9-.2,3,0,2,.2,3,.3,1.8.7,2.5.7,1.3,1.2,1.7c.5.4,1.1.6,1.9.6s1.4-.2,1.9-.6.9-1,1.2-1.7.5-1.5.7-2.5.2-1.9.2-3Z"/>
    </g>
    <g>
      <path class="cls-8" d="M1395.2,288.2c0-1.2.2-2.2.5-3.1.3-.9.8-1.6,1.3-2.2.6-.6,1.2-1,1.9-1.3.7-.3,1.4-.4,2.2-.4,1.7,0,3,.5,3.9,1.6s1.5,2.7,1.5,5,0,.3,0,.4c0,.1,0,.3,0,.4h-9.4c0,1.6.5,2.9,1.2,3.8.8.9,2,1.3,3.6,1.3s1.7,0,2.2-.3c.5-.2.9-.3,1.2-.4l.3,1.5c-.2.1-.7.3-1.4.5s-1.4.3-2.3.3-2.2-.2-3-.5c-.8-.4-1.5-.8-2.1-1.5-.5-.6-.9-1.4-1.2-2.2-.2-.9-.4-1.8-.4-2.8h0ZM1404.7,287.1c0-1.4-.4-2.5-1-3.3s-1.5-1.2-2.7-1.2-1.2.1-1.6.4c-.5.2-.9.6-1.2,1s-.6.9-.8,1.4-.3,1.1-.3,1.7h7.7,0Z"/>
      <path class="cls-8" d="M1411.8,281.5h5.4v1.4h-5.4v7.1c0,.8,0,1.4.2,1.9.1.5.3.9.6,1.1.2.3.5.4.9.5.3,0,.7.1,1.1.1.7,0,1.3,0,1.7-.2.4-.2.8-.3,1-.5l.4,1.4c-.2.2-.7.3-1.3.5-.6.2-1.3.3-2,.3s-1.5-.1-2.1-.3-1-.5-1.3-1-.6-1-.7-1.6-.2-1.4-.2-2.3v-12.4l1.7-.3v4.3h0Z"/>
      <path class="cls-8" d="M1420.3,294.9v-19.9l1.7-.3v7.1c.6-.2,1.1-.4,1.7-.5.6-.1,1.1-.2,1.7-.2,1,0,1.9.1,2.6.4.7.3,1.2.7,1.7,1.3.4.5.7,1.2.9,2,.2.8.2,1.6.2,2.5v7.5h-1.7v-7c0-1,0-1.8-.2-2.4s-.3-1.2-.7-1.6c-.3-.4-.7-.7-1.2-.9s-1.1-.3-1.9-.3-.6,0-.9,0-.7.1-.9.2c-.3,0-.6.1-.8.2s-.4.1-.5.2v11.6h-1.7Z"/>
      <path class="cls-8" d="M1434.4,285.9c0-3,.5-5.4,1.5-7,1-1.6,2.4-2.4,4.3-2.4s3.3.8,4.3,2.4c1,1.6,1.5,4,1.5,7s-.5,5.4-1.5,7c-1,1.6-2.4,2.4-4.3,2.4s-3.3-.8-4.3-2.4c-1-1.6-1.5-3.9-1.5-7ZM1444.2,285.9c0-1,0-2-.2-3s-.3-1.8-.7-2.5-.7-1.3-1.2-1.7-1.1-.6-1.9-.6-1.4.2-1.9.6-.9,1-1.2,1.7c-.3.7-.5,1.6-.7,2.5s-.2,1.9-.2,3,0,2,.2,3c.1,1,.3,1.8.7,2.5s.7,1.3,1.2,1.7,1.1.6,1.9.6,1.4-.2,1.9-.6.9-1,1.2-1.7.5-1.5.7-2.5.2-1.9.2-3Z"/>
    </g>
    <g>
      <path class="cls-5" d="M946.5,568.8c0,1.5-.2,2.9-.7,4.1s-1.1,2.2-1.8,3-1.7,1.4-2.7,1.8-2.1.6-3.2.6-2.2-.2-3.2-.6-1.9-1-2.7-1.8c-.8-.8-1.4-1.8-1.8-3s-.7-2.5-.7-4.1.2-2.9.7-4.1,1.1-2.2,1.8-2.9,1.7-1.4,2.7-1.8,2.1-.6,3.2-.6,2.2.2,3.2.6c1,.4,1.9,1,2.7,1.8s1.4,1.8,1.8,2.9.7,2.5.7,4.1ZM944.7,568.8c0-1.2-.2-2.3-.5-3.3s-.8-1.8-1.3-2.5c-.6-.7-1.3-1.2-2.1-1.5s-1.7-.5-2.7-.5-1.9.2-2.7.5c-.8.4-1.5.9-2.1,1.5s-1,1.5-1.3,2.5c-.3,1-.5,2-.5,3.3s.2,2.3.5,3.3.8,1.8,1.3,2.5c.6.7,1.3,1.2,2.1,1.6s1.7.5,2.7.5,1.9-.2,2.7-.5c.8-.4,1.5-.9,2.1-1.6s1-1.5,1.3-2.5c.3-1,.5-2,.5-3.3Z"/>
      <path class="cls-5" d="M950.2,559.8c.5,1.5,1,3,1.5,4.4s1,2.7,1.4,4c.5,1.3,1,2.6,1.4,3.8s1,2.5,1.6,3.8c.5-1.2,1-2.5,1.5-3.7s1-2.5,1.5-3.8,1-2.6,1.4-4c.5-1.4,1-2.8,1.5-4.4h1.9c-.8,2.3-1.5,4.3-2.2,6s-1.2,3.3-1.8,4.7c-.5,1.4-1.1,2.7-1.5,3.8-.5,1.2-1,2.3-1.5,3.5h-1.7c-.5-1.2-1-2.4-1.5-3.6s-1-2.5-1.6-3.8-1.1-2.9-1.8-4.7c-.6-1.7-1.3-3.7-2.1-6h2,0Z"/>
      <path class="cls-5" d="M978.8,577.8c-.3-.6-.8-1.3-1.3-2.1-.5-.8-1.1-1.7-1.7-2.6-.6-.9-1.3-1.9-1.9-2.9-.7-1-1.3-1.9-2-2.9s-1.3-1.8-2-2.6-1.2-1.5-1.7-2.1v15.2h-1.7v-18h1.4c.9,1,1.8,2.1,2.8,3.4,1,1.3,2,2.6,3,4,1,1.3,1.9,2.7,2.7,3.9.8,1.3,1.5,2.4,2.1,3.3v-14.7h1.7v18h-1.5,0Z"/>
      <path class="cls-5" d="M992.3,564.4h5.4v1.4h-5.4v7.2c0,.8,0,1.4.2,1.9s.3.8.6,1.1c.2.3.5.4.9.5.3,0,.7.1,1.1.1.7,0,1.3,0,1.7-.2.4-.2.8-.3,1-.5l.4,1.4c-.2.2-.7.3-1.3.5-.6.2-1.3.3-2,.3s-1.5-.1-2.1-.3-1-.5-1.3-1c-.3-.4-.6-1-.7-1.7s-.2-1.4-.2-2.3v-12.4l1.7-.3v4.3h0Z"/>
      <path class="cls-5" d="M1011.2,577.4c-.5.1-1.2.3-2,.5-.8.2-1.9.3-3.1.3s-1.8-.2-2.5-.4c-.7-.3-1.2-.7-1.6-1.2-.4-.5-.7-1.2-.9-2-.2-.8-.3-1.6-.3-2.5v-7.5h1.7v7c0,1,0,1.8.2,2.4s.4,1.2.7,1.6c.3.4.7.7,1.2.9.5.2,1.1.3,1.8.3s1.5,0,2.1-.1,1-.2,1.1-.2v-11.8h1.7v13h0Z"/>
      <path class="cls-5" d="M1015.6,564.8c.5-.1,1.2-.3,2-.5.8-.2,1.9-.3,3.1-.3s1.9.2,2.6.4c.7.3,1.2.7,1.6,1.3.4.5.7,1.2.9,2s.3,1.6.3,2.5v7.5h-1.7v-7c0-1,0-1.8-.2-2.4s-.3-1.2-.7-1.6c-.3-.4-.7-.7-1.2-.9-.5-.2-1.1-.3-1.9-.3s-1.5,0-2.1.1-1,.2-1.1.2v11.8h-1.7v-13h0Z"/>
      <path class="cls-5" d="M1030.4,564.8c.5-.1,1.2-.3,2-.5.8-.2,1.9-.3,3.1-.3s1.9.2,2.6.4c.7.3,1.2.7,1.6,1.3s.7,1.2.9,2,.3,1.6.3,2.5v7.5h-1.7v-7c0-1,0-1.8-.2-2.4s-.3-1.2-.7-1.6c-.3-.4-.7-.7-1.2-.9-.5-.2-1.1-.3-1.9-.3s-1.5,0-2.1.1-1,.2-1.1.2v11.8h-1.7v-13h0Z"/>
      <path class="cls-5" d="M1044.4,571.1c0-1.2.2-2.2.5-3.1.3-.9.8-1.6,1.3-2.2.6-.6,1.2-1,1.9-1.3.7-.3,1.4-.4,2.2-.4,1.7,0,3,.5,3.9,1.6s1.5,2.7,1.5,5,0,.3,0,.4c0,.1,0,.3,0,.4h-9.4c0,1.7.5,2.9,1.2,3.8.8.9,2,1.3,3.6,1.3s1.7,0,2.2-.3c.5-.2.9-.3,1.2-.4l.3,1.5c-.2.1-.7.3-1.4.5s-1.4.3-2.3.3-2.2-.2-3-.5c-.8-.3-1.5-.8-2.1-1.5-.5-.6-.9-1.4-1.2-2.2-.2-.9-.4-1.8-.4-2.8h0ZM1054,570c0-1.4-.4-2.5-1-3.3s-1.5-1.2-2.7-1.2-1.2.1-1.6.4c-.5.2-.9.6-1.2,1-.4.4-.6.9-.8,1.4s-.3,1.1-.3,1.7h7.7,0Z"/>
      <path class="cls-5" d="M1062.9,578.1c-.6,0-1.1,0-1.5-.2-.4-.1-.8-.3-1.1-.6s-.5-.6-.7-1-.2-1-.2-1.6v-16.7l1.7-.3v16.9c0,.4,0,.8.1,1s.2.5.3.6c.2.2.4.3.6.3s.6.1.9.2l-.2,1.4h0Z"/>
    </g>
    <g>
      <path class="cls-8" d="M326.2,678c.5,1.5,1,3,1.5,4.4.5,1.4,1,2.7,1.4,4s1,2.6,1.4,3.8c.5,1.2,1,2.5,1.6,3.8.5-1.2,1-2.5,1.5-3.7.5-1.2,1-2.5,1.5-3.8s1-2.6,1.4-4,1-2.8,1.5-4.4h1.9c-.8,2.3-1.5,4.3-2.1,6-.6,1.7-1.2,3.3-1.8,4.7-.5,1.4-1.1,2.7-1.5,3.8-.5,1.2-1,2.3-1.5,3.5h-1.7c-.5-1.2-1-2.4-1.5-3.6s-1-2.5-1.6-3.8-1.1-2.9-1.8-4.7c-.6-1.7-1.4-3.7-2.1-6h2,0Z"/>
      <path class="cls-8" d="M344.5,678.5c0,.4-.1.7-.4,1-.2.2-.5.3-.9.3s-.6-.1-.9-.3-.4-.5-.4-1,.1-.7.4-1c.2-.2.5-.3.9-.3s.6.1.9.3.4.5.4,1ZM344.1,696h-1.7v-13.5h1.7v13.5Z"/>
      <path class="cls-8" d="M353.1,682.3c.5,0,1.1,0,1.6.1s.8.2,1,.3l-.3,1.5c-.1,0-.4-.1-.9-.2-.4,0-1-.1-1.7-.1s-1.3,0-1.8.2c-.4,0-.7.2-.9.3v11.8h-1.7v-12.8c.4-.2,1-.4,1.8-.6s1.7-.3,2.8-.3h0Z"/>
      <path class="cls-8" d="M359.9,682.6h5.4v1.4h-5.4v7.2c0,.8,0,1.4.2,1.9.1.5.3.8.6,1.1.2.3.5.4.9.5.4,0,.7.1,1.1.1.7,0,1.3,0,1.7-.2.4-.2.8-.3,1-.5l.4,1.4c-.2.2-.7.3-1.3.5-.6.2-1.3.3-2,.3s-1.5-.1-2.1-.3-1-.5-1.4-1-.6-1-.7-1.7c-.1-.7-.2-1.4-.2-2.3v-12.4l1.7-.3v4.3h0Z"/>
      <path class="cls-8" d="M378.7,695.5c-.5.1-1.2.3-2,.5s-1.9.3-3.1.3-1.9-.2-2.5-.4c-.7-.3-1.2-.7-1.6-1.2s-.7-1.2-.9-2-.3-1.6-.3-2.5v-7.5h1.7v7c0,1,0,1.8.2,2.4.1.7.4,1.2.7,1.6s.7.7,1.2.9,1.1.3,1.8.3,1.5,0,2.1-.1,1-.2,1.1-.2v-11.8h1.7v13h0Z"/>
      <path class="cls-8" d="M387.2,682.2c.9,0,1.6.1,2.2.4s1.1.6,1.5,1c.4.4.7,1,.8,1.6.2.6.3,1.3.3,2v8.5c-.2,0-.4.1-.8.2-.3,0-.7.1-1.1.2-.4,0-.9.1-1.4.2-.5,0-1.1,0-1.6,0s-1.4,0-2-.2-1.1-.4-1.6-.7-.8-.8-1-1.3c-.2-.5-.4-1.2-.4-1.9s.1-1.3.4-1.9.7-1,1.2-1.3c.5-.3,1.1-.6,1.8-.7.7-.2,1.5-.2,2.3-.2s.5,0,.8,0c.3,0,.5,0,.8,0s.5,0,.6.1.3,0,.4.1v-.8c0-.5,0-.9-.1-1.4,0-.4-.2-.8-.5-1.2-.2-.3-.6-.6-1-.9-.4-.2-1-.3-1.7-.3-1,0-1.7,0-2.2.2s-.8.2-1.1.3l-.2-1.5c.3-.1.8-.3,1.4-.4s1.4-.2,2.2-.2h0ZM387.4,694.8c.7,0,1.2,0,1.7,0,.5,0,.9,0,1.3-.2v-4.7c-.2,0-.5-.2-.9-.3s-1-.1-1.7-.1-.9,0-1.3,0-.9.2-1.2.4-.7.5-.9.8c-.2.3-.4.8-.4,1.4s0,.9.2,1.3c.2.3.4.6.7.8.3.2.7.4,1.1.5.4,0,.9.1,1.4.1h0Z"/>
      <path class="cls-8" d="M399.8,696.2c-.6,0-1.1,0-1.5-.2-.4-.1-.8-.3-1.1-.6s-.5-.6-.6-1-.2-1-.2-1.6v-16.7l1.7-.3v16.9c0,.4,0,.8.1,1s.2.5.4.6.4.3.6.3.5.1.9.2l-.2,1.4h0Z"/>
      <path class="cls-8" d="M356.6,727.2c-.3-.6-.8-1.3-1.3-2.1s-1.1-1.7-1.7-2.6c-.6-.9-1.3-1.9-1.9-2.9-.7-1-1.3-1.9-2-2.9s-1.3-1.8-2-2.6c-.6-.8-1.2-1.5-1.7-2.1v15.2h-1.7v-18h1.4c.9,1,1.8,2.1,2.8,3.4s2,2.6,3,4,1.9,2.7,2.7,3.9,1.5,2.4,2.1,3.3v-14.7h1.7v18h-1.5,0Z"/>
      <path class="cls-8" d="M362.8,709.2h1.8v18h-1.8v-18Z"/>
      <path class="cls-8" d="M376.7,727.6c-1.2,0-2.2-.2-3.2-.6s-1.9-1-2.6-1.8-1.3-1.8-1.7-3c-.4-1.2-.6-2.5-.6-4s.2-2.8.7-4c.5-1.2,1.1-2.2,1.8-3,.8-.8,1.6-1.4,2.6-1.8s2-.6,3.1-.6,1.3,0,1.9.1c.5,0,1,.2,1.5.3.4.1.8.3,1.1.4.3.1.5.2.7.3l-.6,1.5c-.4-.3-1-.5-1.6-.8-.7-.2-1.5-.4-2.5-.4s-2.1.2-3,.6c-.8.4-1.5.9-2.1,1.6s-1,1.5-1.3,2.5c-.3,1-.4,2-.4,3.2s.1,2.3.4,3.2c.3,1,.7,1.8,1.3,2.5.5.7,1.2,1.2,2,1.6.8.4,1.7.5,2.8.5s2.1-.1,2.9-.3,1.4-.4,1.8-.7l.5,1.5c-.1,0-.3.2-.6.3s-.7.2-1.1.3c-.5.1-1,.2-1.6.3s-1.2.1-2,.1h0Z"/>
    </g>
    <g>
      <path class="cls-8" d="M686.3,571.1c0-1.2.2-2.2.5-3.1.3-.9.8-1.6,1.3-2.2s1.2-1,1.9-1.3,1.4-.4,2.2-.4c1.7,0,3,.5,3.9,1.6s1.5,2.7,1.5,5,0,.3,0,.4,0,.3,0,.4h-9.4c0,1.7.5,2.9,1.2,3.8.8.9,2,1.3,3.6,1.3s1.7,0,2.2-.3c.5-.2.9-.3,1.2-.4l.3,1.5c-.2.1-.7.3-1.4.5s-1.5.3-2.3.3-2.2-.2-3-.5-1.5-.8-2-1.5c-.5-.6-.9-1.4-1.2-2.2s-.4-1.8-.4-2.8h0ZM695.8,570c0-1.4-.4-2.5-1-3.3-.6-.8-1.5-1.2-2.7-1.2s-1.2.1-1.6.4-.9.6-1.2,1-.6.9-.8,1.4-.3,1.1-.3,1.7h7.7Z"/>
      <path class="cls-8" d="M703,564.4h5.4v1.4h-5.4v7.2c0,.8,0,1.4.2,1.9.1.5.3.8.6,1.1.2.3.5.4.9.5.3,0,.7.1,1.1.1.7,0,1.3,0,1.7-.2.4-.2.8-.3,1-.5l.4,1.4c-.2.2-.7.3-1.3.5-.6.2-1.3.3-2,.3s-1.5-.1-2.1-.3-1-.5-1.3-1-.6-1-.7-1.7c-.1-.7-.2-1.4-.2-2.3v-12.4l1.7-.3v4.3h0Z"/>
      <path class="cls-8" d="M711.4,577.8v-19.9l1.7-.3v7.1c.5-.2,1.1-.4,1.7-.5s1.1-.2,1.7-.2c1,0,1.9.2,2.6.4s1.2.7,1.7,1.3.7,1.2.9,2c.2.8.2,1.6.2,2.5v7.5h-1.7v-7c0-1,0-1.8-.2-2.4s-.3-1.2-.7-1.6-.7-.7-1.2-.9c-.5-.2-1.1-.3-1.9-.3s-.6,0-1,0-.7.1-1,.2c-.3,0-.6.1-.8.2s-.4.1-.5.2v11.6h-1.7,0Z"/>
      <path class="cls-8" d="M726.8,563.5c1-.4,2-.8,2.8-1.4s1.6-1.3,2.4-2.3h1.2v18h-1.7v-15.5c-.2.2-.4.4-.7.7-.3.2-.7.5-1,.7-.4.2-.8.4-1.2.6s-.8.4-1.2.5l-.5-1.3h0Z"/>
    </g>
    <g>
      <path class="cls-8" d="M1254.7,571.1c0-1.2.2-2.2.5-3.1.3-.9.8-1.6,1.3-2.2.6-.6,1.2-1,1.9-1.3.7-.3,1.4-.4,2.2-.4,1.7,0,3,.5,3.9,1.6s1.5,2.7,1.5,5,0,.3,0,.4c0,.1,0,.3,0,.4h-9.4c0,1.7.5,2.9,1.2,3.8.8.9,2,1.3,3.6,1.3s1.7,0,2.2-.3c.5-.2.9-.3,1.2-.4l.3,1.5c-.2.1-.7.3-1.4.5s-1.4.3-2.3.3-2.2-.2-3-.5c-.8-.3-1.5-.8-2.1-1.5-.5-.6-.9-1.4-1.2-2.2-.2-.9-.4-1.8-.4-2.8h0ZM1264.2,570c0-1.4-.4-2.5-1-3.3s-1.5-1.2-2.7-1.2-1.2.1-1.6.4c-.5.2-.9.6-1.2,1s-.6.9-.8,1.4-.3,1.1-.3,1.7h7.7,0Z"/>
      <path class="cls-8" d="M1271.3,564.4h5.4v1.4h-5.4v7.2c0,.8,0,1.4.2,1.9s.3.8.6,1.1c.2.3.5.4.9.5.3,0,.7.1,1.1.1.7,0,1.3,0,1.7-.2.4-.2.8-.3,1-.5l.4,1.4c-.2.2-.7.3-1.3.5-.6.2-1.3.3-2,.3s-1.5-.1-2.1-.3-1-.5-1.3-1-.6-1-.7-1.7c-.1-.7-.2-1.4-.2-2.3v-12.4l1.7-.3v4.3h0Z"/>
      <path class="cls-8" d="M1279.8,577.8v-19.9l1.7-.3v7.1c.6-.2,1.1-.4,1.7-.5s1.1-.2,1.7-.2c1,0,1.9.2,2.6.4s1.2.7,1.7,1.3.7,1.2.9,2c.2.8.2,1.6.2,2.5v7.5h-1.7v-7c0-1,0-1.8-.2-2.4s-.3-1.2-.7-1.6c-.3-.4-.7-.7-1.2-.9s-1.1-.3-1.9-.3-.6,0-.9,0-.7.1-.9.2c-.3,0-.6.1-.8.2s-.4.1-.5.2v11.6h-1.7Z"/>
      <path class="cls-8" d="M1295.1,563.5c1-.4,2-.8,2.8-1.4.8-.6,1.6-1.3,2.4-2.3h1.2v18h-1.7v-15.5c-.2.2-.4.4-.7.7-.3.2-.7.5-1,.7-.4.2-.8.4-1.2.6s-.8.4-1.2.5l-.5-1.3h0Z"/>
    </g>
    <g>
      <path class="cls-5" d="M326.2,406.8c.5,1.5,1,3,1.5,4.4.5,1.4,1,2.7,1.4,4s1,2.6,1.4,3.8c.5,1.2,1,2.5,1.6,3.8.5-1.2,1-2.5,1.5-3.7.5-1.2,1-2.5,1.5-3.8.5-1.3,1-2.6,1.4-4s1-2.9,1.5-4.4h1.9c-.8,2.3-1.5,4.3-2.1,6-.6,1.7-1.2,3.3-1.8,4.7-.5,1.4-1.1,2.7-1.5,3.8s-1,2.4-1.5,3.5h-1.7c-.5-1.2-1-2.4-1.5-3.6-.5-1.2-1-2.5-1.6-3.8-.5-1.4-1.1-2.9-1.8-4.6-.6-1.7-1.4-3.7-2.1-6h2,0Z"/>
      <path class="cls-5" d="M344.5,407.3c0,.4-.1.7-.4,1-.2.2-.5.4-.9.4s-.6-.1-.9-.4-.4-.5-.4-1,.1-.7.4-1,.5-.4.9-.4.6.1.9.4.4.5.4,1ZM344.1,424.8h-1.7v-13.5h1.7v13.5Z"/>
      <path class="cls-5" d="M353.1,411.1c.5,0,1.1,0,1.6.1s.8.2,1,.3l-.3,1.5c-.1,0-.4-.1-.9-.2s-1-.1-1.7-.1-1.3,0-1.8.2c-.4.1-.7.2-.9.3v11.8h-1.7v-12.8c.4-.2,1-.4,1.8-.6.8-.2,1.7-.3,2.8-.3h0Z"/>
      <path class="cls-5" d="M359.9,411.4h5.4v1.4h-5.4v7.1c0,.8,0,1.4.2,1.9.1.5.3.9.6,1.1.2.3.5.4.9.5.4,0,.7.1,1.1.1.7,0,1.3,0,1.7-.2.4-.2.8-.3,1-.5l.4,1.4c-.2.2-.7.3-1.3.5-.6.2-1.3.3-2,.3s-1.5-.1-2.1-.3-1-.5-1.4-1-.6-1-.7-1.6-.2-1.4-.2-2.3v-12.4l1.7-.3v4.3h0Z"/>
      <path class="cls-5" d="M378.7,424.3c-.5.1-1.2.3-2,.5-.9.2-1.9.3-3.1.3s-1.9-.1-2.5-.4c-.7-.3-1.2-.7-1.6-1.2s-.7-1.2-.9-2-.3-1.6-.3-2.5v-7.5h1.7v7c0,1,0,1.8.2,2.4.1.7.4,1.2.7,1.6.3.4.7.7,1.2.9s1.1.3,1.8.3,1.5,0,2.1-.1,1-.2,1.1-.2v-11.8h1.7v13h0Z"/>
      <path class="cls-5" d="M387.2,411c.9,0,1.6.1,2.2.4s1.1.6,1.5,1c.4.4.7,1,.8,1.6.2.6.3,1.3.3,2v8.5c-.2,0-.4.1-.8.2-.3,0-.7.1-1.1.2s-.9.1-1.4.2c-.5,0-1.1,0-1.6,0s-1.4,0-2-.2-1.1-.4-1.6-.7-.8-.8-1-1.3-.4-1.2-.4-1.9.1-1.4.4-1.9.7-1,1.2-1.3,1.1-.6,1.8-.7,1.5-.2,2.3-.2.5,0,.8,0,.5,0,.8.1.5,0,.6.1.3,0,.4.1v-.8c0-.5,0-.9-.1-1.4,0-.4-.2-.8-.5-1.2-.2-.4-.6-.6-1-.9s-1-.3-1.7-.3c-1,0-1.7,0-2.2.2-.5.1-.8.2-1.1.3l-.2-1.5c.3-.1.8-.3,1.4-.4.6-.1,1.4-.2,2.2-.2h0ZM387.4,423.6c.7,0,1.2,0,1.7,0,.5,0,.9-.1,1.3-.2v-4.7c-.2,0-.5-.2-.9-.3s-1-.1-1.7-.1-.9,0-1.3,0c-.5,0-.9.2-1.2.4s-.7.5-.9.8c-.2.4-.4.8-.4,1.4s0,.9.2,1.3c.2.4.4.6.7.8s.7.4,1.1.5c.4.1.9.1,1.4.1h0Z"/>
      <path class="cls-5" d="M399.8,425c-.6,0-1.1,0-1.5-.2s-.8-.3-1.1-.6c-.3-.3-.5-.6-.6-1s-.2-1-.2-1.6v-16.6l1.7-.3v16.9c0,.4,0,.8.1,1s.2.5.4.6.4.3.6.3c.2,0,.5.1.9.2l-.2,1.4h0Z"/>
      <path class="cls-5" d="M332.3,442.3c.5,0,1.1,0,1.6.1.5,0,.8.2,1,.3l-.3,1.5c-.1,0-.4-.1-.8-.2-.4,0-1-.1-1.7-.1s-1.3,0-1.8.2c-.4.1-.7.2-.9.3v11.8h-1.7v-12.8c.4-.2,1-.4,1.8-.6.8-.2,1.7-.3,2.8-.3h0Z"/>
      <path class="cls-5" d="M349,449.3c0,1.1-.1,2-.5,2.9-.3.9-.7,1.6-1.3,2.2-.5.6-1.2,1.1-1.9,1.4-.8.3-1.6.5-2.5.5s-1.7-.2-2.5-.5c-.8-.3-1.4-.8-1.9-1.4s-1-1.3-1.3-2.2-.5-1.8-.5-2.9.1-2,.5-2.9c.3-.9.7-1.6,1.3-2.2.5-.6,1.2-1.1,1.9-1.4s1.6-.5,2.5-.5,1.7.2,2.5.5c.8.3,1.4.8,1.9,1.4.5.6,1,1.4,1.3,2.2.3.9.5,1.8.5,2.9ZM347.1,449.3c0-1.7-.4-3-1.2-4s-1.8-1.5-3.2-1.5-2.4.5-3.2,1.5-1.2,2.3-1.2,4,.4,3,1.2,4,1.8,1.5,3.2,1.5,2.4-.5,3.2-1.5,1.2-2.3,1.2-4Z"/>
      <path class="cls-5" d="M362.9,455.5c-.5.1-1.2.3-2,.5-.9.2-1.9.3-3.1.3s-1.9-.1-2.5-.4c-.7-.3-1.2-.7-1.6-1.2s-.7-1.2-.9-2c-.2-.8-.3-1.6-.3-2.5v-7.5h1.7v7c0,1,0,1.8.2,2.4s.4,1.2.7,1.6c.3.4.7.7,1.2.9.5.2,1.1.3,1.8.3s1.5,0,2.1-.1,1-.2,1.1-.2v-11.8h1.7v13h0Z"/>
      <path class="cls-5" d="M369,442.6h5.4v1.4h-5.4v7.1c0,.8,0,1.4.2,1.9.1.5.3.8.6,1.1.2.3.5.4.9.5.4,0,.7.1,1.1.1.7,0,1.3,0,1.7-.2.4-.2.8-.3,1-.5l.4,1.4c-.2.2-.7.3-1.3.5-.6.2-1.3.3-2,.3s-1.5-.1-2.1-.3-1-.5-1.4-1-.6-1-.7-1.6-.2-1.4-.2-2.3v-12.4l1.7-.3v4.3h0Z"/>
      <path class="cls-5" d="M376.7,449.3c0-1.2.2-2.2.5-3.1.3-.9.8-1.6,1.3-2.2.5-.6,1.2-1,1.9-1.3s1.4-.4,2.2-.4c1.6,0,3,.5,3.9,1.6s1.5,2.7,1.5,5,0,.3,0,.4,0,.3,0,.4h-9.4c0,1.6.5,2.9,1.2,3.8.8.9,2,1.3,3.6,1.3s1.6,0,2.2-.3c.5-.2.9-.3,1.2-.4l.3,1.5c-.2.1-.7.3-1.4.5-.7.2-1.5.3-2.4.3s-2.2-.2-3-.5-1.5-.8-2-1.5c-.5-.6-.9-1.4-1.2-2.2s-.4-1.8-.4-2.8h0ZM386.2,448.2c0-1.4-.4-2.5-1-3.3-.6-.8-1.5-1.2-2.6-1.2s-1.1.1-1.6.4-.9.6-1.2,1c-.4.4-.6.9-.8,1.4-.2.5-.3,1.1-.4,1.7h7.7,0Z"/>
      <path class="cls-5" d="M396.3,442.3c.5,0,1.1,0,1.6.1.5,0,.8.2,1,.3l-.3,1.5c-.1,0-.4-.1-.8-.2-.4,0-1-.1-1.7-.1s-1.3,0-1.8.2c-.4.1-.7.2-.9.3v11.8h-1.7v-12.8c.4-.2,1-.4,1.8-.6.8-.2,1.7-.3,2.8-.3h0Z"/>
    </g>
    <g>
      <path class="cls-5" d="M1591.4,388.4c.5,1.5,1,3,1.5,4.4s1,2.7,1.4,4,.9,2.6,1.4,3.8c.5,1.2,1,2.5,1.6,3.8.5-1.2,1.1-2.5,1.5-3.7s1-2.5,1.5-3.8,1-2.6,1.4-4c.5-1.4,1-2.9,1.5-4.4h1.9c-.8,2.3-1.5,4.3-2.2,6s-1.2,3.3-1.8,4.6c-.5,1.4-1.1,2.7-1.6,3.8-.5,1.2-1,2.4-1.6,3.5h-1.7c-.5-1.2-1-2.4-1.5-3.6s-1-2.5-1.6-3.8c-.6-1.4-1.1-2.9-1.8-4.6-.6-1.7-1.3-3.7-2.2-6h2,0Z"/>
      <path class="cls-5" d="M1609.7,388.9c0,.4-.1.7-.4,1-.2.2-.5.4-.9.4s-.6-.1-.9-.4-.4-.5-.4-1,.1-.7.4-1c.2-.2.5-.4.9-.4s.6.1.9.4.4.5.4,1ZM1609.3,406.4h-1.7v-13.5h1.7v13.5Z"/>
      <path class="cls-5" d="M1618.4,392.7c.6,0,1.1,0,1.6.1s.8.2,1,.3l-.3,1.5c-.1,0-.4-.1-.8-.2-.4,0-1-.1-1.7-.1s-1.3,0-1.8.2c-.4.1-.7.2-.9.3v11.8h-1.7v-12.8c.4-.2,1-.4,1.8-.6.8-.2,1.7-.3,2.8-.3h0Z"/>
      <path class="cls-5" d="M1625.1,393h5.4v1.4h-5.4v7.1c0,.8,0,1.4.2,1.9.1.5.3.8.6,1.1.2.3.5.4.9.5s.7.1,1.1.1c.7,0,1.3,0,1.7-.2s.8-.3,1-.5l.4,1.4c-.2.2-.7.3-1.3.5s-1.3.3-2,.3-1.5-.1-2.1-.3c-.6-.2-1-.5-1.3-1s-.6-1-.7-1.6-.2-1.4-.2-2.3v-12.4l1.7-.3v4.3h0Z"/>
      <path class="cls-5" d="M1643.9,405.9c-.5.1-1.2.3-2,.5-.8.2-1.9.3-3.1.3s-1.8-.1-2.5-.4-1.2-.7-1.6-1.2-.7-1.2-.9-2c-.2-.8-.3-1.6-.3-2.5v-7.5h1.7v7c0,1,0,1.8.2,2.4s.4,1.2.7,1.6.7.7,1.2.9c.5.2,1.1.3,1.8.3s1.5,0,2.1-.1,1-.2,1.1-.2v-11.8h1.7v13h0Z"/>
      <path class="cls-5" d="M1652.5,392.6c.9,0,1.6.1,2.2.4s1.1.6,1.5,1c.4.4.7,1,.8,1.6.2.6.3,1.3.3,2v8.5c-.2,0-.4.1-.8.2s-.7.1-1.1.2-.9.1-1.4.2c-.5,0-1.1,0-1.6,0s-1.4,0-2-.2c-.6-.2-1.1-.4-1.6-.7-.4-.3-.8-.8-1-1.3s-.4-1.2-.4-1.9.1-1.4.4-1.9.7-1,1.2-1.3,1.1-.6,1.8-.7,1.4-.2,2.3-.2.5,0,.8,0,.5,0,.8.1.5,0,.7.1.3,0,.4.1v-.8c0-.5,0-.9,0-1.4,0-.4-.2-.8-.5-1.2s-.6-.6-1-.9-1-.3-1.7-.3-1.7,0-2.2.2-.8.2-1.1.3l-.2-1.5c.3-.1.8-.3,1.4-.4.6-.1,1.4-.2,2.2-.2h0ZM1652.6,405.2c.7,0,1.2,0,1.7,0s.9-.1,1.3-.2v-4.7c-.2,0-.5-.2-.9-.3s-1-.1-1.7-.1-.8,0-1.3,0-.9.2-1.2.4-.7.5-.9.8c-.2.4-.4.8-.4,1.4s0,.9.2,1.3c.2.4.4.6.7.8.3.2.7.4,1.1.5.4.1.9.1,1.4.1h0Z"/>
      <path class="cls-5" d="M1665.1,406.6c-.6,0-1.1,0-1.5-.2-.4-.1-.8-.3-1.1-.6-.3-.3-.5-.6-.7-1s-.2-1-.2-1.6v-16.6l1.7-.3v16.9c0,.4,0,.8.1,1s.2.5.3.6c.2.1.4.3.6.3.2,0,.6.1.9.2l-.2,1.4h0Z"/>
      <path class="cls-5" d="M1597.6,423.9c.6,0,1.1,0,1.6.1s.8.2,1,.3l-.3,1.5c-.1,0-.4-.1-.8-.2-.4,0-1-.1-1.7-.1s-1.3,0-1.8.2c-.4.1-.7.2-.9.3v11.8h-1.7v-12.8c.4-.2,1-.4,1.8-.6.8-.2,1.7-.3,2.8-.3h0Z"/>
      <path class="cls-5" d="M1614.2,430.9c0,1.1-.2,2-.5,2.9-.3.9-.7,1.6-1.3,2.2-.5.6-1.2,1.1-1.9,1.4s-1.6.5-2.5.5-1.7-.2-2.5-.5c-.8-.3-1.4-.8-1.9-1.4-.5-.6-1-1.3-1.3-2.2s-.5-1.8-.5-2.9.2-2,.5-2.9c.3-.9.7-1.6,1.3-2.2.6-.6,1.2-1.1,1.9-1.4.7-.3,1.6-.5,2.5-.5s1.7.2,2.5.5,1.4.8,1.9,1.4c.6.6,1,1.4,1.3,2.2.3.9.5,1.8.5,2.9ZM1612.4,430.9c0-1.7-.4-3-1.2-4s-1.8-1.5-3.2-1.5-2.4.5-3.2,1.5-1.2,2.3-1.2,4,.4,3,1.2,4c.8,1,1.8,1.5,3.2,1.5s2.4-.5,3.2-1.5c.8-1,1.2-2.3,1.2-4Z"/>
      <path class="cls-5" d="M1628.2,437.2c-.5.1-1.2.3-2,.5-.8.2-1.9.3-3.1.3s-1.8-.1-2.5-.4c-.7-.3-1.2-.7-1.6-1.2s-.7-1.2-.9-2c-.2-.8-.3-1.6-.3-2.5v-7.5h1.7v7c0,1,0,1.8.2,2.4s.4,1.2.7,1.6c.3.4.7.7,1.2.9.5.2,1.1.3,1.8.3s1.5,0,2.1-.1,1-.2,1.1-.2v-11.8h1.7v13h0Z"/>
      <path class="cls-5" d="M1634.2,424.2h5.4v1.4h-5.4v7.1c0,.8,0,1.4.2,1.9.1.5.3.9.6,1.1.2.3.5.4.9.5.3,0,.7.1,1.1.1.7,0,1.3,0,1.7-.2.4-.2.8-.3,1-.5l.4,1.4c-.2.2-.7.3-1.3.5s-1.3.3-2,.3-1.5-.1-2.1-.3c-.6-.2-1-.5-1.3-1s-.6-1-.7-1.6-.2-1.4-.2-2.3v-12.4l1.7-.3v4.3h0Z"/>
      <path class="cls-5" d="M1641.9,430.9c0-1.2.2-2.2.5-3.1s.8-1.6,1.3-2.2,1.2-1,1.9-1.3,1.4-.4,2.2-.4c1.7,0,3,.5,3.9,1.6,1,1.1,1.5,2.7,1.5,5s0,.3,0,.4c0,.1,0,.3,0,.4h-9.4c0,1.6.5,2.9,1.2,3.8.8.9,2,1.3,3.6,1.3s1.7,0,2.2-.3c.5-.2.9-.3,1.2-.4l.3,1.5c-.2.1-.7.3-1.4.5s-1.4.3-2.3.3-2.2-.2-3-.5-1.5-.8-2.1-1.5c-.5-.6-.9-1.4-1.2-2.2-.2-.9-.4-1.8-.4-2.8h0ZM1651.5,429.8c0-1.4-.4-2.5-1-3.3s-1.5-1.2-2.7-1.2-1.2.1-1.6.4c-.5.2-.9.6-1.2,1s-.6.9-.8,1.4-.3,1.1-.3,1.7h7.7,0Z"/>
      <path class="cls-5" d="M1661.6,423.9c.6,0,1.1,0,1.6.1s.8.2,1,.3l-.3,1.5c-.1,0-.4-.1-.8-.2-.4,0-1-.1-1.7-.1s-1.3,0-1.8.2c-.4.1-.7.2-.9.3v11.8h-1.7v-12.8c.4-.2,1-.4,1.8-.6s1.7-.3,2.8-.3h0Z"/>
      <path class="cls-5" d="M1577.3,461.1c0-2.5.4-4.8,1.2-7,.8-2.1,1.9-4,3.2-5.6l1.2.8c-1.4,1.7-2.4,3.5-3,5.4s-.9,4-.9,6.4.3,4.5.9,6.4,1.6,3.7,3,5.4l-1.2.8c-1.3-1.6-2.4-3.5-3.2-5.6-.8-2.1-1.2-4.4-1.2-6.9h0Z"/>
      <path class="cls-5" d="M1587.6,451.3c0,.4-.1.7-.4,1-.2.2-.5.4-.9.4s-.6-.1-.9-.4-.4-.5-.4-1,.1-.7.4-1,.5-.4.9-.4.6.1.9.4.4.5.4,1ZM1587.2,468.8h-1.7v-13.5h1.7v13.5Z"/>
      <path class="cls-5" d="M1591.7,455.9c.5-.1,1.2-.3,2-.5.8-.2,1.9-.3,3.1-.3s1.9.1,2.6.4c.7.3,1.2.7,1.6,1.3.4.5.7,1.2.9,2,.2.8.3,1.6.3,2.5v7.5h-1.7v-7c0-1,0-1.8-.2-2.4s-.3-1.2-.7-1.6c-.3-.4-.7-.7-1.2-.9-.5-.2-1.1-.3-1.9-.3s-1.5,0-2.1.1-1,.2-1.1.2v11.8h-1.7v-13h0Z"/>
      <path class="cls-5" d="M1610.5,455.1c.9,0,1.6.1,2.2.4s1.1.6,1.5,1,.7,1,.8,1.6c.2.6.3,1.3.3,2v8.5c-.2,0-.4.1-.8.2-.3,0-.7.1-1.1.2s-.9.1-1.4.2-1.1,0-1.6,0-1.4,0-2-.2c-.6-.2-1.1-.4-1.6-.7-.4-.3-.8-.8-1-1.3s-.4-1.2-.4-1.9.1-1.4.4-1.9.7-1,1.2-1.3,1.1-.6,1.8-.7c.7-.2,1.4-.2,2.3-.2s.5,0,.8,0,.5,0,.8.1.5,0,.7.1.3,0,.4.1v-.8c0-.5,0-.9,0-1.4,0-.4-.2-.8-.5-1.2s-.6-.6-1-.9c-.4-.2-1-.3-1.7-.3s-1.7,0-2.2.2c-.5.1-.8.2-1.1.3l-.2-1.5c.3-.1.8-.3,1.4-.4s1.4-.2,2.2-.2h0ZM1610.7,467.6c.7,0,1.2,0,1.7,0,.5,0,.9-.1,1.3-.2v-4.7c-.2,0-.5-.2-.9-.3s-1-.1-1.7-.1-.8,0-1.3,0c-.4,0-.9.2-1.2.4s-.7.5-.9.8c-.2.4-.4.8-.4,1.4s0,.9.2,1.3c.2.4.4.6.7.8.3.2.7.4,1.1.5.4.1.9.1,1.4.1h0Z"/>
      <path class="cls-5" d="M1625.3,469.1c-1,0-2-.2-2.8-.5-.8-.3-1.5-.8-2-1.4-.5-.6-.9-1.4-1.2-2.2s-.4-1.8-.4-2.9.1-2,.4-2.9c.3-.9.7-1.6,1.2-2.2.5-.6,1.2-1.1,1.9-1.4.8-.3,1.6-.5,2.6-.5s1.4,0,2,.2,1.1.3,1.5.5l-.4,1.5c-.3-.2-.7-.3-1.2-.4-.4-.1-1-.2-1.7-.2-1.5,0-2.6.5-3.4,1.4s-1.2,2.3-1.2,4.1,0,1.5.3,2.2.5,1.2.8,1.7.9.9,1.5,1.1,1.4.4,2.2.4,1.3,0,1.8-.2c.5-.2.8-.3,1.1-.4l.4,1.5c-.3.2-.8.3-1.5.5-.7.2-1.4.2-2.1.2h0Z"/>
      <path class="cls-5" d="M1633.2,455.4h5.4v1.4h-5.4v7.1c0,.8,0,1.4.2,1.9.1.5.3.9.6,1.1.2.3.5.4.9.5.3,0,.7.1,1.1.1.7,0,1.3,0,1.7-.2.4-.2.8-.3,1-.5l.4,1.4c-.2.2-.7.3-1.3.5s-1.3.3-2,.3-1.5-.1-2.1-.3c-.6-.2-1-.5-1.3-1s-.6-1-.7-1.6-.2-1.4-.2-2.3v-12.4l1.7-.3v4.3h0Z"/>
      <path class="cls-5" d="M1643.8,451.3c0,.4-.1.7-.4,1s-.5.4-.9.4-.6-.1-.9-.4-.4-.5-.4-1,.1-.7.4-1,.5-.4.9-.4.6.1.9.4.4.5.4,1ZM1643.4,468.8h-1.7v-13.5h1.7v13.5Z"/>
      <path class="cls-5" d="M1652,467c.4-.8.7-1.6,1.1-2.6s.8-2,1.1-3,.7-2.1,1-3.1.6-2,.8-3h1.7c-.3,1.2-.7,2.5-1.1,3.6-.4,1.2-.8,2.4-1.2,3.5-.4,1.1-.9,2.2-1.3,3.3s-.9,2-1.3,3h-1.6c-.4-.9-.9-1.9-1.4-3s-.9-2.2-1.3-3.3-.8-2.3-1.2-3.5c-.4-1.2-.7-2.4-1.1-3.6h1.8c.2.9.5,1.9.8,3,.3,1,.6,2.1,1,3.1s.7,2,1.1,3,.8,1.8,1.1,2.6h0Z"/>
      <path class="cls-5" d="M1659.6,462.1c0-1.2.2-2.2.5-3.1s.8-1.6,1.3-2.2,1.2-1,1.9-1.3,1.4-.4,2.2-.4c1.7,0,3,.5,3.9,1.6,1,1.1,1.5,2.7,1.5,5s0,.3,0,.4c0,.1,0,.3,0,.4h-9.4c0,1.6.5,2.9,1.2,3.8.8.9,2,1.3,3.6,1.3s1.7,0,2.2-.3c.5-.2.9-.3,1.2-.4l.3,1.5c-.2.1-.7.3-1.4.5s-1.4.3-2.3.3-2.2-.2-3-.5-1.5-.8-2.1-1.5c-.5-.6-.9-1.4-1.2-2.2-.2-.9-.4-1.8-.4-2.8h0ZM1669.1,461c0-1.4-.4-2.5-1-3.3s-1.5-1.2-2.7-1.2-1.2.1-1.6.4c-.5.2-.9.6-1.2,1s-.6.9-.8,1.4-.3,1.1-.3,1.7h7.7,0Z"/>
      <path class="cls-5" d="M1677.9,461.1c0,2.5-.4,4.8-1.2,6.9-.8,2.1-1.9,4-3.2,5.6l-1.2-.8c1.4-1.7,2.4-3.5,3-5.4s.9-4,.9-6.4-.3-4.5-.9-6.4-1.6-3.7-3-5.4l1.2-.8c1.3,1.6,2.4,3.5,3.2,5.6.8,2.1,1.2,4.4,1.2,7h0Z"/>
    </g>
    <g>
      <path class="cls-8" d="M533.1,678c.5,1.5,1,3,1.5,4.4s1,2.7,1.4,4c.5,1.3,1,2.6,1.4,3.8s1,2.5,1.6,3.8c.5-1.2,1-2.5,1.5-3.7s1-2.5,1.5-3.8,1-2.6,1.4-4,1-2.8,1.5-4.4h1.9c-.8,2.3-1.5,4.3-2.2,6-.6,1.7-1.2,3.3-1.8,4.7-.5,1.4-1.1,2.7-1.5,3.8-.5,1.2-1,2.3-1.5,3.5h-1.7c-.5-1.2-1-2.4-1.5-3.6s-1-2.5-1.6-3.8-1.1-2.9-1.8-4.7c-.6-1.7-1.3-3.7-2.1-6h2,0Z"/>
      <path class="cls-8" d="M551.5,678.5c0,.4-.1.7-.4,1-.2.2-.5.3-.9.3s-.6-.1-.9-.3-.4-.5-.4-1,.1-.7.4-1c.2-.2.5-.3.9-.3s.6.1.9.3.4.5.4,1ZM551.1,696h-1.7v-13.5h1.7v13.5Z"/>
      <path class="cls-8" d="M560.1,682.3c.5,0,1.1,0,1.6.1s.8.2,1,.3l-.3,1.5c-.1,0-.4-.1-.8-.2-.4,0-1-.1-1.7-.1s-1.3,0-1.8.2c-.4,0-.7.2-.9.3v11.8h-1.7v-12.8c.4-.2,1-.4,1.8-.6.8-.2,1.7-.3,2.8-.3h0Z"/>
      <path class="cls-8" d="M566.8,682.6h5.4v1.4h-5.4v7.2c0,.8,0,1.4.2,1.9s.3.8.6,1.1c.2.3.5.4.9.5.3,0,.7.1,1.1.1.7,0,1.3,0,1.7-.2.4-.2.8-.3,1-.5l.4,1.4c-.2.2-.7.3-1.3.5-.6.2-1.3.3-2,.3s-1.5-.1-2.1-.3c-.6-.2-1-.5-1.3-1-.3-.4-.6-1-.7-1.7-.1-.7-.2-1.4-.2-2.3v-12.4l1.7-.3v4.3h0Z"/>
      <path class="cls-8" d="M585.7,695.5c-.5.1-1.2.3-2,.5s-1.9.3-3.1.3-1.8-.2-2.5-.4c-.7-.3-1.2-.7-1.6-1.2-.4-.5-.7-1.2-.9-2-.2-.8-.3-1.6-.3-2.5v-7.5h1.7v7c0,1,0,1.8.2,2.4s.4,1.2.7,1.6c.3.4.7.7,1.2.9.5.2,1.1.3,1.8.3s1.5,0,2.1-.1,1-.2,1.1-.2v-11.8h1.7v13h0Z"/>
      <path class="cls-8" d="M594.2,682.2c.9,0,1.6.1,2.2.4s1.1.6,1.5,1c.4.4.7,1,.8,1.6.2.6.3,1.3.3,2v8.5c-.2,0-.4.1-.8.2s-.7.1-1.1.2c-.4,0-.9.1-1.4.2-.5,0-1.1,0-1.6,0s-1.4,0-2-.2c-.6-.2-1.1-.4-1.6-.7-.4-.3-.8-.8-1-1.3-.2-.5-.4-1.2-.4-1.9s.1-1.3.4-1.9.7-1,1.2-1.3c.5-.3,1.1-.6,1.8-.7.7-.2,1.5-.2,2.3-.2s.5,0,.8,0c.3,0,.5,0,.8,0s.5,0,.7.1c.2,0,.3,0,.4.1v-.8c0-.5,0-.9,0-1.4,0-.4-.2-.8-.5-1.2-.2-.3-.6-.6-1-.9-.4-.2-1-.3-1.7-.3-1,0-1.7,0-2.2.2-.5.1-.8.2-1.1.3l-.2-1.5c.3-.1.8-.3,1.4-.4s1.4-.2,2.2-.2h0ZM594.4,694.8c.7,0,1.2,0,1.7,0s.9,0,1.3-.2v-4.7c-.2,0-.5-.2-.9-.3s-1-.1-1.7-.1-.8,0-1.3,0-.9.2-1.2.4-.7.5-.9.8c-.2.3-.4.8-.4,1.4s0,.9.2,1.3c.2.3.4.6.7.8s.7.4,1.1.5c.4,0,.9.1,1.4.1h0Z"/>
      <path class="cls-8" d="M606.8,696.2c-.6,0-1.1,0-1.5-.2s-.8-.3-1.1-.6-.5-.6-.7-1-.2-1-.2-1.6v-16.7l1.7-.3v16.9c0,.4,0,.8.1,1s.2.5.3.6c.2.2.4.3.6.3s.5.1.9.2l-.2,1.4h0Z"/>
      <path class="cls-8" d="M563.6,727.2c-.3-.6-.8-1.3-1.3-2.1-.5-.8-1.1-1.7-1.7-2.6-.6-.9-1.3-1.9-1.9-2.9-.7-1-1.3-1.9-2-2.9s-1.3-1.8-2-2.6-1.2-1.5-1.7-2.1v15.2h-1.7v-18h1.4c.9,1,1.8,2.1,2.8,3.4,1,1.3,2,2.6,3,4s1.9,2.7,2.7,3.9c.8,1.3,1.5,2.4,2.1,3.3v-14.7h1.7v18h-1.5,0Z"/>
      <path class="cls-8" d="M569.8,709.2h1.8v18h-1.8v-18Z"/>
      <path class="cls-8" d="M583.7,727.6c-1.2,0-2.2-.2-3.2-.6s-1.9-1-2.6-1.8-1.3-1.8-1.7-3-.6-2.5-.6-4,.2-2.8.7-4c.5-1.2,1.1-2.2,1.8-3s1.7-1.4,2.7-1.8,2-.6,3.2-.6,1.3,0,1.8.1,1,.2,1.5.3.8.3,1.1.4c.3.1.5.2.7.3l-.6,1.5c-.4-.3-1-.5-1.7-.8s-1.5-.4-2.5-.4-2.1.2-3,.6-1.5.9-2.1,1.6-1,1.5-1.3,2.5c-.3,1-.4,2-.4,3.2s.1,2.3.4,3.2c.3,1,.7,1.8,1.3,2.5s1.2,1.2,2,1.6c.8.4,1.7.5,2.8.5s2.1-.1,2.9-.3c.8-.2,1.4-.4,1.8-.7l.5,1.5c-.1,0-.3.2-.6.3s-.7.2-1.1.3-1,.2-1.6.3-1.2.1-2,.1h0Z"/>
    </g>
    <g>
      <path class="cls-8" d="M1384.4,678c.5,1.5,1,3,1.5,4.4s1,2.7,1.4,4,.9,2.6,1.4,3.8c.5,1.2,1,2.5,1.6,3.8.5-1.2,1.1-2.5,1.5-3.7s1-2.5,1.5-3.8,1-2.6,1.4-4,1-2.8,1.5-4.4h1.9c-.8,2.3-1.5,4.3-2.2,6-.6,1.7-1.2,3.3-1.8,4.7-.5,1.4-1.1,2.7-1.6,3.8-.5,1.2-1,2.3-1.6,3.5h-1.7c-.5-1.2-1-2.4-1.5-3.6s-1-2.5-1.6-3.8-1.1-2.9-1.8-4.7c-.6-1.7-1.3-3.7-2.2-6h2,0Z"/>
      <path class="cls-8" d="M1402.8,678.5c0,.4-.1.7-.4,1-.2.2-.5.3-.9.3s-.6-.1-.9-.3-.4-.5-.4-1,.1-.7.4-1c.2-.2.5-.3.9-.3s.6.1.9.3.4.5.4,1ZM1402.4,696h-1.7v-13.5h1.7v13.5Z"/>
      <path class="cls-8" d="M1411.4,682.3c.6,0,1.1,0,1.6.1s.8.2,1,.3l-.3,1.5c-.1,0-.4-.1-.8-.2-.4,0-1-.1-1.7-.1s-1.3,0-1.8.2c-.4,0-.7.2-.9.3v11.8h-1.7v-12.8c.4-.2,1-.4,1.8-.6s1.7-.3,2.8-.3h0Z"/>
      <path class="cls-8" d="M1418.2,682.6h5.4v1.4h-5.4v7.2c0,.8,0,1.4.2,1.9s.3.8.6,1.1c.2.3.5.4.9.5.3,0,.7.1,1.1.1.7,0,1.3,0,1.7-.2.4-.2.8-.3,1-.5l.4,1.4c-.2.2-.7.3-1.3.5-.6.2-1.3.3-2,.3s-1.5-.1-2.1-.3-1-.5-1.3-1-.6-1-.7-1.7c-.1-.7-.2-1.4-.2-2.3v-12.4l1.7-.3v4.3h0Z"/>
      <path class="cls-8" d="M1437,695.5c-.5.1-1.2.3-2,.5-.8.2-1.9.3-3.1.3s-1.8-.2-2.5-.4c-.7-.3-1.2-.7-1.6-1.2s-.7-1.2-.9-2c-.2-.8-.3-1.6-.3-2.5v-7.5h1.7v7c0,1,0,1.8.2,2.4s.4,1.2.7,1.6c.3.4.7.7,1.2.9.5.2,1.1.3,1.8.3s1.5,0,2.1-.1,1-.2,1.1-.2v-11.8h1.7v13h0Z"/>
      <path class="cls-8" d="M1445.5,682.2c.9,0,1.6.1,2.2.4s1.1.6,1.5,1,.7,1,.8,1.6c.2.6.3,1.3.3,2v8.5c-.2,0-.4.1-.8.2s-.7.1-1.1.2c-.4,0-.9.1-1.4.2-.5,0-1.1,0-1.6,0s-1.4,0-2-.2c-.6-.2-1.1-.4-1.6-.7s-.8-.8-1-1.3c-.2-.5-.4-1.2-.4-1.9s.1-1.3.4-1.9.7-1,1.2-1.3c.5-.3,1.1-.6,1.8-.7.7-.2,1.4-.2,2.3-.2s.5,0,.8,0c.3,0,.5,0,.8,0s.5,0,.7.1.3,0,.4.1v-.8c0-.5,0-.9,0-1.4,0-.4-.2-.8-.5-1.2-.2-.3-.6-.6-1-.9-.4-.2-1-.3-1.7-.3s-1.7,0-2.2.2c-.5.1-.8.2-1.1.3l-.2-1.5c.3-.1.8-.3,1.4-.4s1.4-.2,2.2-.2h0ZM1445.7,694.8c.7,0,1.2,0,1.7,0s.9,0,1.3-.2v-4.7c-.2,0-.5-.2-.9-.3s-1-.1-1.7-.1-.8,0-1.3,0-.9.2-1.2.4-.7.5-.9.8c-.2.3-.4.8-.4,1.4s0,.9.2,1.3c.2.3.4.6.7.8.3.2.7.4,1.1.5.4,0,.9.1,1.4.1h0Z"/>
      <path class="cls-8" d="M1458.1,696.2c-.6,0-1.1,0-1.5-.2s-.8-.3-1.1-.6-.5-.6-.7-1-.2-1-.2-1.6v-16.7l1.7-.3v16.9c0,.4,0,.8.1,1s.2.5.3.6.4.3.6.3.6.1.9.2l-.2,1.4h0Z"/>
      <path class="cls-8" d="M1414.9,727.2c-.3-.6-.8-1.3-1.3-2.1s-1.1-1.7-1.7-2.6c-.6-.9-1.3-1.9-1.9-2.9-.7-1-1.3-1.9-2-2.9s-1.3-1.8-2-2.6-1.2-1.5-1.7-2.1v15.2h-1.7v-18h1.4c.9,1,1.8,2.1,2.8,3.4s2,2.6,3,4c1,1.3,1.9,2.7,2.7,3.9s1.5,2.4,2.1,3.3v-14.7h1.7v18h-1.5,0Z"/>
      <path class="cls-8" d="M1421.1,709.2h1.8v18h-1.8v-18Z"/>
      <path class="cls-8" d="M1435,727.6c-1.2,0-2.2-.2-3.2-.6s-1.9-1-2.6-1.8-1.3-1.8-1.7-3-.6-2.5-.6-4,.2-2.8.7-4c.5-1.2,1.1-2.2,1.8-3s1.7-1.4,2.7-1.8,2.1-.6,3.2-.6,1.3,0,1.8.1,1,.2,1.5.3.8.3,1.1.4c.3.1.5.2.7.3l-.6,1.5c-.4-.3-1-.5-1.7-.8s-1.5-.4-2.5-.4-2.1.2-2.9.6-1.6.9-2.1,1.6-1,1.5-1.3,2.5c-.3,1-.4,2-.4,3.2s.1,2.3.4,3.2c.3,1,.7,1.8,1.3,2.5s1.2,1.2,2,1.6c.8.4,1.7.5,2.8.5s2.1-.1,2.9-.3,1.4-.4,1.8-.7l.5,1.5c-.1,0-.3.2-.6.3s-.7.2-1.1.3-1,.2-1.6.3c-.6,0-1.2.1-2,.1h0Z"/>
    </g>
    <g>
      <path class="cls-8" d="M1591.4,678c.5,1.5,1,3,1.5,4.4s1,2.7,1.4,4,.9,2.6,1.4,3.8c.5,1.2,1,2.5,1.6,3.8.5-1.2,1.1-2.5,1.5-3.7s1-2.5,1.5-3.8,1-2.6,1.4-4,1-2.8,1.5-4.4h1.9c-.8,2.3-1.5,4.3-2.2,6-.6,1.7-1.2,3.3-1.8,4.7-.5,1.4-1.1,2.7-1.6,3.8-.5,1.2-1,2.3-1.6,3.5h-1.7c-.5-1.2-1-2.4-1.5-3.6s-1-2.5-1.6-3.8-1.1-2.9-1.8-4.7c-.6-1.7-1.3-3.7-2.2-6h2,0Z"/>
      <path class="cls-8" d="M1609.7,678.5c0,.4-.1.7-.4,1-.2.2-.5.3-.9.3s-.6-.1-.9-.3-.4-.5-.4-1,.1-.7.4-1c.2-.2.5-.3.9-.3s.6.1.9.3.4.5.4,1ZM1609.3,696h-1.7v-13.5h1.7v13.5Z"/>
      <path class="cls-8" d="M1618.4,682.3c.6,0,1.1,0,1.6.1s.8.2,1,.3l-.3,1.5c-.1,0-.4-.1-.8-.2-.4,0-1-.1-1.7-.1s-1.3,0-1.8.2c-.4,0-.7.2-.9.3v11.8h-1.7v-12.8c.4-.2,1-.4,1.8-.6s1.7-.3,2.8-.3h0Z"/>
      <path class="cls-8" d="M1625.1,682.6h5.4v1.4h-5.4v7.2c0,.8,0,1.4.2,1.9s.3.8.6,1.1c.2.3.5.4.9.5.3,0,.7.1,1.1.1.7,0,1.3,0,1.7-.2.4-.2.8-.3,1-.5l.4,1.4c-.2.2-.7.3-1.3.5-.6.2-1.3.3-2,.3s-1.5-.1-2.1-.3-1-.5-1.3-1-.6-1-.7-1.7c-.1-.7-.2-1.4-.2-2.3v-12.4l1.7-.3v4.3h0Z"/>
      <path class="cls-8" d="M1643.9,695.5c-.5.1-1.2.3-2,.5-.8.2-1.9.3-3.1.3s-1.8-.2-2.5-.4c-.7-.3-1.2-.7-1.6-1.2s-.7-1.2-.9-2c-.2-.8-.3-1.6-.3-2.5v-7.5h1.7v7c0,1,0,1.8.2,2.4s.4,1.2.7,1.6c.3.4.7.7,1.2.9.5.2,1.1.3,1.8.3s1.5,0,2.1-.1,1-.2,1.1-.2v-11.8h1.7v13h0Z"/>
      <path class="cls-8" d="M1652.5,682.2c.9,0,1.6.1,2.2.4s1.1.6,1.5,1,.7,1,.8,1.6c.2.6.3,1.3.3,2v8.5c-.2,0-.4.1-.8.2s-.7.1-1.1.2c-.4,0-.9.1-1.4.2-.5,0-1.1,0-1.6,0s-1.4,0-2-.2c-.6-.2-1.1-.4-1.6-.7s-.8-.8-1-1.3c-.2-.5-.4-1.2-.4-1.9s.1-1.3.4-1.9.7-1,1.2-1.3c.5-.3,1.1-.6,1.8-.7.7-.2,1.4-.2,2.3-.2s.5,0,.8,0c.3,0,.5,0,.8,0s.5,0,.7.1.3,0,.4.1v-.8c0-.5,0-.9,0-1.4,0-.4-.2-.8-.5-1.2-.2-.3-.6-.6-1-.9-.4-.2-1-.3-1.7-.3s-1.7,0-2.2.2c-.5.1-.8.2-1.1.3l-.2-1.5c.3-.1.8-.3,1.4-.4s1.4-.2,2.2-.2h0ZM1652.6,694.8c.7,0,1.2,0,1.7,0s.9,0,1.3-.2v-4.7c-.2,0-.5-.2-.9-.3s-1-.1-1.7-.1-.8,0-1.3,0-.9.2-1.2.4-.7.5-.9.8c-.2.3-.4.8-.4,1.4s0,.9.2,1.3c.2.3.4.6.7.8.3.2.7.4,1.1.5.4,0,.9.1,1.4.1h0Z"/>
      <path class="cls-8" d="M1665.1,696.2c-.6,0-1.1,0-1.5-.2s-.8-.3-1.1-.6-.5-.6-.7-1-.2-1-.2-1.6v-16.7l1.7-.3v16.9c0,.4,0,.8.1,1s.2.5.3.6.4.3.6.3.6.1.9.2l-.2,1.4h0Z"/>
      <path class="cls-8" d="M1621.8,727.2c-.3-.6-.8-1.3-1.3-2.1s-1.1-1.7-1.7-2.6c-.6-.9-1.3-1.9-1.9-2.9-.7-1-1.3-1.9-2-2.9s-1.3-1.8-2-2.6-1.2-1.5-1.7-2.1v15.2h-1.7v-18h1.4c.9,1,1.8,2.1,2.8,3.4s2,2.6,3,4c1,1.3,1.9,2.7,2.7,3.9s1.5,2.4,2.1,3.3v-14.7h1.7v18h-1.5,0Z"/>
      <path class="cls-8" d="M1628,709.2h1.8v18h-1.8v-18Z"/>
      <path class="cls-8" d="M1642,727.6c-1.2,0-2.2-.2-3.2-.6s-1.9-1-2.6-1.8-1.3-1.8-1.7-3-.6-2.5-.6-4,.2-2.8.7-4c.5-1.2,1.1-2.2,1.8-3s1.7-1.4,2.7-1.8,2.1-.6,3.2-.6,1.3,0,1.8.1,1,.2,1.5.3.8.3,1.1.4c.3.1.5.2.7.3l-.6,1.5c-.4-.3-1-.5-1.7-.8s-1.5-.4-2.5-.4-2.1.2-2.9.6-1.6.9-2.1,1.6-1,1.5-1.3,2.5c-.3,1-.4,2-.4,3.2s.1,2.3.4,3.2c.3,1,.7,1.8,1.3,2.5s1.2,1.2,2,1.6c.8.4,1.7.5,2.8.5s2.1-.1,2.9-.3,1.4-.4,1.8-.7l.5,1.5c-.1,0-.3.2-.6.3s-.7.2-1.1.3-1,.2-1.6.3c-.6,0-1.2.1-2,.1h0Z"/>
    </g>
  </g>
</svg>