<?xml version="1.0" encoding="UTF-8" standalone="no"?>
<!-- Generator: Adobe Illustrator 19.1.0, SVG Export Plug-In . SVG Version: 6.00 Build 0)  -->
<svg id="Layer_1" style="enable-background:new -76 202.9 442 436" xmlns="http://www.w3.org/2000/svg" xml:space="preserve" height="436px" viewBox="-76 202.9 442 436" width="442px" version="1.1" y="0px" x="0px" xmlns:xlink="http://www.w3.org/1999/xlink">
<style type="text/css">
	.bg{fill:#FFF;}
	.st0{fill:#888888;}
	.st1{fill:#E95420;}
</style>
	<path class="bg" d="m 106.59961,342.99961 c -67.799933,0 -124.399232,48.79967 -136.699219,113.09961 h -28.5 c -4.599996,0 -9.000785,1.80156 -12.300782,5.10156 C -74.200387,464.50078 -76,468.89961 -76,473.49961 V 503.9 c 0,9.59999 7.8004,17.40039 17.400391,17.40039 9.59999,0 17.40039,-7.8004 17.40039,-17.40039 0,-5.79999 3.800005,-10.70039 9,-12.40039 3.099997,46.59995 28.9992592,89.0008 69.199219,112.30078 0.1,0 0.09961,0.0996 0.09961,0.0996 H 37 c -9.59999,0 -17.400391,7.8004 -17.400391,17.40039 0,9.59999 7.700791,17.30039 17.300782,17.40039 h 139.298829 0.20117 0.0996 c 0.5,0 0.90039,-0.10156 1.40039,-0.10156 8.89999,-0.8 15.69922,-8.29884 15.69922,-17.29883 0,-6.89999 -4.19962,-12.90117 -10.09961,-15.70117 -2.2,-1.1 -4.70039,-1.69922 -7.40039,-1.69922 40.29996,-23.29998 66.20078,-65.70083 69.30078,-112.30078 5.1,1.7 8.79883,6.60079 8.79883,12.30078 0,9.59999 7.8004,17.40039 17.40039,17.40039 9.6,10e-6 17.4004,-7.80039 17.4004,-17.40038 v -30.40039 c 0,-4.6 -1.79961,-9.09883 -5.09961,-12.29883 -3.3,-3.3 -7.70079,-5.10156 -12.30078,-5.10156 H 243.30078 C 231.00079,391.79928 174.39954,342.99961 106.59961,342.99961 Z"/>
	<path class="bg" d="M 250.5,346.7 212,357 222.3,318.5 C 215.8,307.2 212,294 212,280 c 0,-42.5 34.5,-77 77,-77 42.5,0 77,34.5 77,77 0,42.5 -34.5,77 -77,77 -14.2,0 -27.6,-3.9 -39,-10.6 z"/>
	<path class="st0" d="m289 473.5v30.4c0 9.6-7.8 17.4-17.4 17.4s-17.4-7.8-17.4-17.4c0-5.7-3.7-10.6-8.8-12.3-3.1 46.6-29 89-69.3 112.3 2.7 0 5.2 0.6 7.4 1.7 5.9 2.8 10.1 8.8 10.1 15.7 0 9-6.8 16.5-15.7 17.3-0.5 0-0.9 0.1-1.4 0.1h-0.1-0.2-139.3c-9.6-0.1-17.3-7.8-17.3-17.4s7.8-17.4 17.4-17.4h0.1s0-0.1-0.1-0.1c-40.2-23.3-66.1-65.7-69.2-112.3-5.2 1.7-9 6.6-9 12.4 0 9.6-7.8 17.4-17.4 17.4s-17.4-7.8-17.4-17.4v-30.4c0-4.6 1.8-9 5.1-12.3s7.7-5.1 12.3-5.1h28.5c12.3-64.3 68.9-113.1 136.7-113.1s124.4 48.8 136.7 113.1h28.3c4.6 0 9 1.8 12.3 5.1 3.3 3.2 5.1 7.7 5.1 12.3zm-173.8-0.2c0-4.8-3.9-8.7-8.7-8.7s-8.7 3.9-8.7 8.7v26.1c0 4.8 3.9 8.7 8.7 8.7s8.7-3.9 8.7-8.7v-26.1zm78.2-60.8c0-27.6-23.3-50-52.2-50-13.4 0-25.5 4.8-34.7 12.7-9.2-7.9-21.4-12.7-34.7-12.7-28.8 0-52.2 22.4-52.2 50s23.4 50 52.2 50c13.3 0 25.5-4.8 34.7-12.7 9.2 7.9 21.4 12.7 34.7 12.7 28.9 0 52.2-22.4 52.2-50zm-43.5 0.1c0 4.8-3.9 8.7-8.7 8.7s-8.7-3.9-8.7-8.7 3.9-8.7 8.7-8.7 8.7 3.9 8.7 8.7zm-78.2-8.7c-4.8 0-8.7 3.9-8.7 8.7s3.9 8.7 8.7 8.7 8.7-3.9 8.7-8.7-3.9-8.7-8.7-8.7z"/>
	<path class="st1" d="m250.5 346.7l-38.5 10.3 10.3-38.5c-6.5-11.3-10.3-24.5-10.3-38.5 0-42.5 34.5-77 77-77s77 34.5 77 77c0 42.5-34.5 77-77 77-14.2 0-27.6-3.9-39-10.6l0.5 0.3zm41.3-87.6c1.2 1.1 1.9 2.5 1.9 4.1 0 1.9-0.6 3.6-1.9 5.1s-2.7 3-4.2 4.6c-1.1 1.1-2.1 2.2-3.1 3.3s-1.9 2.4-2.6 3.6c-0.8 1.3-1.4 2.7-1.9 4.2s-0.7 3.2-0.7 5v2.2c0 0.8 0.1 1.6 0.2 2.2h13.2c-0.1-0.4-0.1-0.9-0.1-1.4v-1.2c0-1.1 0.2-2.2 0.7-3.4 0.5-1.1 1-2.1 1.8-3.1s1.5-2 2.4-2.9c0.9-0.9 1.7-1.8 2.5-2.5 1.1-1.1 2.2-2.2 3.3-3.4s2.1-2.5 3-3.8 1.6-2.8 2.1-4.4c0.6-1.6 0.9-3.3 0.9-5.1 0-1.9-0.3-3.8-1-5.9-0.6-2.1-1.8-4-3.4-5.7s-3.8-3.2-6.5-4.3c-2.8-1.1-6.3-1.7-10.5-1.7-3.4 0-6.9 0.4-10.4 1.3s-6.6 2.2-9.2 3.9l4.2 11.3c2.6-1.3 5-2.3 7.1-2.9s4.4-0.9 6.8-0.9 4.2 0.7 5.4 1.8zm1 41.8c-1.9-1.6-4-2.4-6.5-2.4s-4.5 0.8-6.5 2.4c-1.9 1.6-2.9 3.9-2.9 6.8s1 5.2 2.9 6.8 4.1 2.4 6.5 2.4 4.5-0.8 6.5-2.4c1.9-1.6 2.9-3.9 2.9-6.8s-1-5.2-2.9-6.8z"/>
</svg>
